<svg xmlns="http://www.w3.org/2000/svg" height="845.7" width="2009.6" viewBox="0 0 1884 792.8"><path fill="none" stroke="#000" stroke-width="5" d="M24.5 68h838.8v75.6H24.5zM24.5 219.3h838.8v75.6H24.5zM24.5 370.5h838.8v75.6H24.5zM24.5 521.8h838.8v75.6H24.5z"/><path d="M293 110.6q0 1.6-.3 3.1-.3 1.6-1.1 2.7-.8 1.2-2 2-1 .6-2.7.6-1.6 0-2.8-.7-1.1-.7-1.9-1.9-.8-1.1-1.1-2.7-.4-1.5-.4-3.1 0-1.7.4-3.2.3-1.6 1.1-2.7.8-1.2 2-1.9 1.1-.7 2.7-.7t2.8.7q1.1.7 1.9 1.9.8 1.1 1.1 2.7.4 1.5.4 3.2zm-19.3-23.3v36.4h7v-3.3q1.2 2.2 3.5 3 2.3 1 5.2 1 2 0 4-.8 1.9-.8 3.4-2.5 1.6-1.7 2.6-4.3 1-2.7 1-6.3 0-3.6-1-6.2-1-2.7-2.6-4.3-1.5-1.7-3.5-2.5-1.9-.9-3.9-.9-2.4 0-4.7 1-2.3 1-3.6 3h-.1V87.3h-7.3zM305.2 87.3v36.4h7.2V87.3h-7.2zM324.5 110.6q0-1.6.3-3.1.4-1.6 1-2.7.8-1.2 2-2 1.3-.7 3.1-.7 1.9 0 3 .8 1.4.7 2 1.9.8 1.1 1.1 2.7.4 1.5.4 3 0 1.7-.4 3.2-.3 1.5-1 2.7-.7 1.2-2 1.9-1.2.7-3 .7-2 0-3.1-.7-1.3-.7-2-1.9t-1-2.7q-.4-1.5-.4-3.1zm-7.2 0q0 3.1 1 5.7 1 2.5 2.7 4.4 1.8 1.8 4.3 2.7 2.5 1 5.6 1 3.1 0 5.6-1 2.6-1 4.4-2.7 1.8-1.9 2.7-4.4 1-2.6 1-5.7 0-3.2-1-5.7-1-2.6-2.7-4.4-1.8-1.9-4.4-2.8-2.5-1-5.6-1-3 0-5.6 1-2.5 1-4.3 2.8-1.8 1.8-2.7 4.4-1 2.5-1 5.7zM367.2 106.6h7q0-2.5-1.1-4.3-1.1-2-2.8-3.2-1.7-1.2-4-1.9-2-.6-4.4-.6-3.2 0-5.7 1.1-2.5 1-4.3 3-1.7 2-2.6 4.6-.9 2.6-.9 5.6 0 3 1 5.5 1 2.4 2.7 4.2 1.7 1.8 4.2 2.8 2.5 1 5.4 1 5.3 0 8.7-2.7 3.3-2.8 4-8h-7q-.3 2.4-1.7 3.9-1.4 1.4-4 1.4-1.7 0-2.9-.8-1.2-.7-1.9-2-.6-1.1-1-2.6l-.2-3q0-1.4.3-2.9t1-2.7q.7-1.3 2-2 1-.9 2.8-.9 4.7 0 5.4 4.5zM379.1 87.3v36.4h7.3v-9l2.8-2.7 7.2 11.7h8.8l-11-16.6 9.9-9.7h-8.6l-9.1 9.4V87.3H379zM439.7 107.7h-11.8q0-.7.3-1.7t1-1.9q.7-.8 1.8-1.4 1.2-.6 3-.6 2.6 0 3.9 1.4 1.3 1.5 1.8 4.2zm-11.8 4.6h19q.2-3-.5-5.9-.7-2.8-2.3-5-1.6-2.2-4.1-3.4-2.5-1.4-5.9-1.4-3 0-5.5 1.1-2.4 1-4.2 3-1.8 1.8-2.8 4.4-1 2.5-1 5.5t1 5.6q1 2.5 2.7 4.4 1.7 1.8 4.2 2.8 2.5 1 5.6 1 4.5 0 7.7-2 3.1-2 4.7-6.8H440q-.4 1.2-2 2.3-1.5 1.1-3.7 1.1-3 0-4.7-1.6-1.7-1.6-1.8-5zM451.4 87.3v36.4h7.3V87.3h-7.3zM482.2 107.7h-11.8q0-.7.3-1.7t1-1.9q.7-.8 1.8-1.4 1.2-.6 2.9-.6 2.7 0 4 1.4 1.3 1.5 1.8 4.2zm-11.8 4.6h19q.2-3-.5-5.9-.7-2.8-2.3-5-1.6-2.2-4.1-3.4-2.5-1.4-5.9-1.4-3 0-5.5 1.1-2.5 1-4.2 3-1.8 1.8-2.8 4.4-1 2.5-1 5.5t1 5.6q1 2.5 2.6 4.4 1.8 1.8 4.3 2.8 2.5 1 5.6 1 4.5 0 7.7-2 3.1-2 4.7-6.8h-6.4q-.4 1.2-2 2.3-1.5 1.1-3.7 1.1-3.1 0-4.7-1.6-1.7-1.6-1.8-5zM494 97.4v26.3h7.2v-15.3q0-2 .5-3 .6-1.3 1.4-2 .8-.6 1.6-.8l1.4-.2q1.7 0 2.6.6.9.5 1.3 1.5t.4 2.1v17.1h7.3V109l.2-2.4q.2-1.2.7-2.1.5-1 1.5-1.5 1-.6 2.5-.6t2.4.5q.9.5 1.3 1.3.5 1 .6 2l.1 2.6v15h7.3V106q0-2.6-.8-4.4-.7-1.8-2-3-1.2-1-3-1.6-1.8-.5-3.9-.5-2.8 0-4.8 1.4-2 1.3-3.2 3-1-2.4-3.1-3.4-2-1-4.6-1-2.6 0-4.6 1.2-2 1-3.4 3.1h-.1v-3.5h-6.9zM557.8 107.7H546q0-.7.3-1.7t1-1.9q.7-.8 1.8-1.4 1.2-.6 2.9-.6 2.6 0 4 1.4 1.2 1.5 1.8 4.2zm-11.8 4.6h19q.2-3-.5-5.9-.7-2.8-2.3-5-1.6-2.2-4.1-3.4-2.5-1.4-6-1.4-3 0-5.4 1.1-2.5 1-4.3 3-1.7 1.8-2.7 4.4-1 2.5-1 5.5t1 5.6q.9 2.5 2.6 4.4 1.8 1.8 4.3 2.8 2.5 1 5.6 1 4.5 0 7.7-2 3.1-2 4.7-6.8h-6.4q-.4 1.2-2 2.3-1.6 1.1-3.8 1.1-3 0-4.6-1.6-1.7-1.6-1.8-5zM569.3 97.4v26.3h7.3V110q0-4 1.3-5.8 1.3-1.7 4.3-1.7 2.6 0 3.6 1.6t1 4.8v15h7.3v-16.3q0-2.4-.5-4.4-.4-2-1.5-3.5-1-1.4-3-2.1-1.8-.9-4.7-.9-2.3 0-4.5 1.1-2.2 1-3.5 3.3h-.2v-3.6h-6.9zM608.8 97.4v-8h-7.2v8h-4.4v4.8h4.4v15.6q0 2 .6 3.2.7 1.2 1.8 1.9 1.2.6 2.7.8 1.5.3 3.2.3h2.2l2-.3v-5.6l-1 .2h-1.2q-1.9 0-2.5-.6-.6-.6-.6-2.4v-13.1h5.3v-4.8h-5.3zM293 262.1q0 1.6-.3 3.2-.3 1.5-1.1 2.7-.8 1.1-2 1.9-1 .6-2.7.6-1.6 0-2.8-.6-1.1-.8-1.9-2-.8-1.1-1.1-2.6-.4-1.6-.4-3.2 0-1.7.4-3.2.3-1.5 1.1-2.7.8-1.2 2-1.9 1.1-.7 2.7-.7t2.8.7q1.1.7 1.9 1.9.8 1.2 1.1 2.7.4 1.5.4 3.2zm-19.3-23.3v36.5h7v-3.4q1.2 2.2 3.5 3.1 2.3 1 5.2 1 2 0 4-.9 1.9-.8 3.4-2.5 1.6-1.7 2.6-4.3 1-2.6 1-6.3 0-3.6-1-6.2t-2.6-4.3q-1.5-1.7-3.5-2.5-1.9-.8-3.9-.8-2.4 0-4.7 1-2.3.8-3.6 2.9h-.1v-13.3h-7.3zM305.2 238.8v36.5h7.2v-36.5h-7.2zM324.5 262.1q0-1.6.3-3.1.4-1.5 1-2.7.8-1.2 2-2 1.3-.7 3.1-.7 1.9 0 3 .8 1.4.7 2 1.9.8 1.2 1.1 2.7.4 1.5.4 3.1t-.4 3.1q-.3 1.5-1 2.7-.7 1.2-2 2-1.2.6-3 .6-2 0-3.1-.7-1.3-.7-2-1.9t-1-2.7q-.4-1.5-.4-3.1zm-7.2 0q0 3.2 1 5.7 1 2.6 2.7 4.4 1.8 1.8 4.3 2.8 2.5 1 5.6 1 3.1 0 5.6-1 2.6-1 4.4-2.8 1.8-1.8 2.7-4.4 1-2.5 1-5.7t-1-5.7q-1-2.6-2.7-4.4-1.8-1.8-4.4-2.8-2.5-1-5.6-1-3 0-5.6 1-2.5 1-4.3 2.8-1.8 1.8-2.7 4.4-1 2.5-1 5.7zM367.2 258.2h7q0-2.6-1.1-4.4-1.1-2-2.8-3.1-1.7-1.3-4-2-2-.5-4.4-.5-3.2 0-5.7 1-2.5 1.1-4.3 3-1.7 2-2.6 4.6-.9 2.6-.9 5.7 0 3 1 5.4 1 2.5 2.7 4.3 1.7 1.7 4.2 2.8 2.5 1 5.4 1 5.3 0 8.7-2.8 3.3-2.8 4-8h-7q-.3 2.4-1.7 3.9-1.4 1.4-4 1.4-1.7 0-2.9-.7-1.2-.8-1.9-2-.6-1.2-1-2.7l-.2-2.9q0-1.5.3-3t1-2.7q.7-1.3 2-2 1-.9 2.8-.9 4.7 0 5.4 4.6zM379.1 238.8v36.5h7.3v-9.1l2.8-2.7 7.2 11.8h8.8l-11-16.7 9.9-9.7h-8.6l-9.1 9.5v-19.6H379zM439.7 259.2h-11.8q0-.7.3-1.7t1-1.8q.7-.9 1.8-1.5 1.2-.6 3-.6 2.6 0 3.9 1.5 1.3 1.4 1.8 4.1zm-11.8 4.6h19q.2-3-.5-5.8t-2.3-5q-1.6-2.2-4.1-3.5-2.5-1.3-5.9-1.3-3 0-5.5 1-2.4 1.1-4.2 3-1.8 1.8-2.8 4.4-1 2.5-1 5.5t1 5.6q1 2.6 2.7 4.4 1.7 1.8 4.2 2.9 2.5 1 5.6 1 4.5 0 7.7-2.1 3.1-2 4.7-6.8H440q-.4 1.2-2 2.4-1.5 1-3.7 1-3 0-4.7-1.6-1.7-1.5-1.8-5zM451.4 238.8v36.5h7.3v-36.5h-7.3zM482.2 259.2h-11.8q0-.7.3-1.7t1-1.8q.7-.9 1.8-1.5 1.2-.6 2.9-.6 2.7 0 4 1.5 1.3 1.4 1.8 4.1zm-11.8 4.6h19q.2-3-.5-5.8t-2.3-5q-1.6-2.2-4.1-3.5-2.5-1.3-5.9-1.3-3 0-5.5 1-2.5 1.1-4.2 3-1.8 1.8-2.8 4.4-1 2.5-1 5.5t1 5.6q1 2.6 2.6 4.4 1.8 1.8 4.3 2.9 2.5 1 5.6 1 4.5 0 7.7-2.1 3.1-2 4.7-6.8h-6.4q-.4 1.2-2 2.4-1.5 1-3.7 1-3.1 0-4.7-1.6-1.7-1.5-1.8-5zM494 248.9v26.4h7.2v-15.4q0-1.9.5-3 .6-1.3 1.4-1.9.8-.7 1.6-.9l1.4-.2q1.7 0 2.6.6.9.5 1.3 1.5t.4 2.2v17.1h7.3v-14.7q0-1.3.2-2.4.2-1.3.7-2.2.5-1 1.5-1.5 1-.6 2.5-.6t2.4.5q.9.5 1.3 1.4.5.8.6 2l.1 2.5v15h7.3v-17.7q0-2.6-.8-4.3-.7-1.9-2-3-1.2-1.1-3-1.6t-3.9-.5q-2.8 0-4.8 1.3t-3.2 3q-1-2.4-3.1-3.4-2-1-4.6-1-2.6 0-4.6 1.2-2 1.1-3.4 3.1h-.1V249h-6.9zM557.8 259.2H546q0-.7.3-1.7t1-1.8q.7-.9 1.8-1.5 1.2-.6 2.9-.6 2.6 0 4 1.5 1.2 1.4 1.8 4.1zm-11.8 4.6h19q.2-3-.5-5.8t-2.3-5q-1.6-2.2-4.1-3.5-2.5-1.3-6-1.3-3 0-5.4 1-2.5 1.1-4.3 3-1.7 1.8-2.7 4.4-1 2.5-1 5.5t1 5.6q.9 2.6 2.6 4.4 1.8 1.8 4.3 2.9 2.5 1 5.6 1 4.5 0 7.7-2.1 3.1-2 4.7-6.8h-6.4q-.4 1.2-2 2.4-1.6 1-3.8 1-3 0-4.6-1.6-1.7-1.5-1.8-5zM569.3 248.9v26.4h7.3v-13.9q0-4 1.3-5.7 1.3-1.8 4.3-1.8 2.6 0 3.6 1.6t1 4.9v14.9h7.3V259q0-2.4-.5-4.4-.4-2-1.5-3.4-1-1.5-3-2.2-1.8-.8-4.7-.8-2.3 0-4.5 1t-3.5 3.3h-.2V249h-6.9zM608.8 248.9v-8h-7.2v8h-4.4v4.8h4.4v15.6q0 2 .6 3.2.7 1.2 1.8 1.9 1.2.7 2.7.9 1.5.2 3.2.2h2.2q1.1 0 2-.2v-5.6l-1 .1h-1.2q-1.9 0-2.5-.6-.6-.6-.6-2.4v-13h5.3v-5h-5.3zM293 413.6q0 1.7-.3 3.2-.3 1.5-1.1 2.7-.8 1.2-2 1.9-1 .6-2.7.6-1.6 0-2.8-.6-1.1-.7-1.9-2-.8-1-1.1-2.6-.4-1.5-.4-3.2 0-1.7.4-3.2.3-1.5 1.1-2.7.8-1.2 2-1.8 1.1-.8 2.7-.8t2.8.8q1.1.6 1.9 1.8.8 1.2 1.1 2.7.4 1.5.4 3.2zm-19.3-23.3v36.5h7v-3.4q1.2 2.2 3.5 3.1 2.3 1 5.2 1 2 0 4-.9 1.9-.8 3.4-2.5 1.6-1.6 2.6-4.3 1-2.6 1-6.2 0-3.7-1-6.3-1-2.6-2.6-4.3-1.5-1.7-3.5-2.5-1.9-.8-3.9-.8-2.4 0-4.7 1-2.3.9-3.6 3h-.1v-13.4h-7.3zM305.2 390.3v36.5h7.2v-36.5h-7.2zM324.5 413.6q0-1.6.3-3 .4-1.6 1-2.8.8-1.2 2-1.9 1.3-.8 3.1-.8 1.9 0 3 .8 1.4.7 2 1.9.8 1.2 1.1 2.7.4 1.5.4 3.1t-.4 3.1q-.3 1.5-1 2.7-.7 1.2-2 2-1.2.6-3 .6-2 0-3.1-.7-1.3-.7-2-1.9t-1-2.7q-.4-1.5-.4-3zm-7.2 0q0 3.2 1 5.7 1 2.6 2.7 4.4 1.8 1.8 4.3 2.8 2.5 1 5.6 1 3.1 0 5.6-1 2.6-1 4.4-2.8 1.8-1.8 2.7-4.4 1-2.5 1-5.7 0-3.1-1-5.7t-2.7-4.4q-1.8-1.8-4.4-2.8-2.5-1-5.6-1-3 0-5.6 1-2.5 1-4.3 2.8-1.8 1.8-2.7 4.4-1 2.6-1 5.7zM367.2 409.7h7q0-2.6-1.1-4.4-1.1-1.9-2.8-3.1-1.7-1.3-4-1.9-2-.6-4.4-.6-3.2 0-5.7 1-2.5 1.1-4.3 3-1.7 2-2.6 4.6-.9 2.6-.9 5.7 0 3 1 5.4 1 2.5 2.7 4.3 1.7 1.8 4.2 2.8 2.5 1 5.4 1 5.3 0 8.7-2.8 3.3-2.8 4-8h-7q-.3 2.4-1.7 4-1.4 1.3-4 1.3-1.7 0-2.9-.7-1.2-.8-1.9-2-.6-1.2-1-2.7-.2-1.4-.2-2.9t.3-3q.3-1.5 1-2.7.7-1.3 2-2 1-.9 2.8-.9 4.7 0 5.4 4.6zM379.1 390.3v36.5h7.3v-9l2.8-2.8 7.2 11.8h8.8l-11-16.7 9.9-9.7h-8.6l-9.1 9.5v-19.6H379zM439.7 410.8h-11.8q0-.8.3-1.8t1-1.8q.7-.9 1.8-1.4 1.2-.7 3-.7 2.6 0 3.9 1.5 1.3 1.4 1.8 4.2zm-11.8 4.6h19q.2-3.1-.5-6-.7-2.7-2.3-5-1.6-2.1-4.1-3.4-2.5-1.3-5.9-1.3-3 0-5.5 1-2.4 1.1-4.2 3-1.8 1.9-2.8 4.4-1 2.6-1 5.5 0 3 1 5.6 1 2.6 2.7 4.4 1.7 1.9 4.2 2.9t5.6 1q4.5 0 7.7-2 3.1-2.1 4.7-6.9H440q-.4 1.2-2 2.4-1.5 1-3.7 1-3 0-4.7-1.5-1.7-1.6-1.8-5.1zM451.4 390.3v36.5h7.3v-36.5h-7.3zM482.2 410.8h-11.8q0-.8.3-1.8t1-1.8q.7-.9 1.8-1.4 1.2-.7 2.9-.7 2.7 0 4 1.5 1.3 1.4 1.8 4.2zm-11.8 4.6h19q.2-3.1-.5-6-.7-2.7-2.3-5-1.6-2.1-4.1-3.4-2.5-1.3-5.9-1.3-3 0-5.5 1-2.5 1.1-4.2 3-1.8 1.9-2.8 4.4-1 2.6-1 5.5 0 3 1 5.6 1 2.6 2.6 4.4 1.8 1.9 4.3 2.9t5.6 1q4.5 0 7.7-2 3.1-2.1 4.7-6.9h-6.4q-.4 1.2-2 2.4-1.5 1-3.7 1-3.1 0-4.7-1.5-1.7-1.6-1.8-5.1zM494 400.4v26.4h7.2v-15.3q0-2 .5-3.1.6-1.3 1.4-1.9.8-.6 1.6-.8.9-.3 1.4-.3 1.7 0 2.6.6.9.6 1.3 1.5.4 1 .4 2.2v17.1h7.3v-14.7l.2-2.4q.2-1.2.7-2.2.5-1 1.5-1.5 1-.6 2.5-.6t2.4.5q.9.5 1.3 1.4.5.9.6 2l.1 2.5v15h7.3v-17.7q0-2.5-.8-4.3-.7-1.8-2-3-1.2-1-3-1.6-1.8-.5-3.9-.5-2.8 0-4.8 1.3t-3.2 3q-1-2.4-3.1-3.3-2-1-4.6-1-2.6 0-4.6 1.1-2 1.1-3.4 3.2h-.1v-3.6h-6.9zM557.8 410.8H546q0-.8.3-1.8t1-1.8q.7-.9 1.8-1.4 1.2-.7 2.9-.7 2.6 0 4 1.5 1.2 1.4 1.8 4.2zm-11.8 4.6h19q.2-3.1-.5-6-.7-2.7-2.3-5-1.6-2.1-4.1-3.4-2.5-1.3-6-1.3-3 0-5.4 1-2.5 1.1-4.3 3-1.7 1.9-2.7 4.4-1 2.6-1 5.5 0 3 1 5.6.9 2.6 2.6 4.4 1.8 1.9 4.3 2.9t5.6 1q4.5 0 7.7-2 3.1-2.1 4.7-6.9h-6.4q-.4 1.2-2 2.4-1.6 1-3.8 1-3 0-4.6-1.5-1.7-1.6-1.8-5.1zM569.3 400.4v26.4h7.3V413q0-4 1.3-5.8 1.3-1.8 4.3-1.8 2.6 0 3.6 1.6t1 4.9v14.9h7.3v-16.2q0-2.5-.5-4.5-.4-2-1.5-3.4-1-1.4-3-2.2-1.8-.8-4.7-.8-2.3 0-4.5 1t-3.5 3.4h-.2v-3.7h-6.9zM608.8 400.4v-8h-7.2v8h-4.4v4.9h4.4v15.5q0 2 .6 3.2.7 1.3 1.8 2 1.2.6 2.7.8 1.5.3 3.2.3l2.2-.1q1.1 0 2-.2v-5.6l-1 .1h-1.2q-1.9 0-2.5-.5-.6-.6-.6-2.5v-13h5.3v-4.9h-5.3z"/><g><path d="M293 563.1q0 1.7-.3 3.2-.3 1.5-1.1 2.7-.8 1.2-2 1.9-1 .6-2.7.6-1.6 0-2.8-.6-1.1-.7-1.9-2-.8-1-1.1-2.6-.4-1.5-.4-3.2 0-1.7.4-3.2.3-1.5 1.1-2.7.8-1.2 2-1.8 1.1-.8 2.7-.8t2.8.8q1.1.6 1.9 1.8.8 1.2 1.1 2.7.4 1.5.4 3.2zm-19.3-23.3v36.5h7v-3.4q1.2 2.2 3.5 3.1 2.3 1 5.2 1 2 0 4-.9 1.9-.8 3.4-2.5 1.6-1.6 2.6-4.3 1-2.6 1-6.2 0-3.7-1-6.3-1-2.6-2.6-4.3-1.5-1.7-3.5-2.5-1.9-.8-3.9-.8-2.4 0-4.7 1-2.3.9-3.6 3h-.1v-13.4h-7.3zM305.2 539.8v36.5h7.2v-36.5h-7.2zM324.5 563.1q0-1.6.3-3 .4-1.6 1-2.8.8-1.2 2-1.9 1.3-.8 3.1-.8 1.9 0 3 .8 1.4.7 2 1.9.8 1.2 1.1 2.7.4 1.5.4 3.1t-.4 3.1q-.3 1.5-1 2.7-.7 1.2-2 2-1.2.6-3 .6-2 0-3.1-.7-1.3-.7-2-1.9t-1-2.7q-.4-1.5-.4-3zm-7.2 0q0 3.2 1 5.7 1 2.6 2.7 4.4 1.8 1.8 4.3 2.8 2.5 1 5.6 1 3.1 0 5.6-1 2.6-1 4.4-2.8 1.8-1.8 2.7-4.4 1-2.5 1-5.7 0-3.1-1-5.7T341 553q-1.8-1.8-4.4-2.8-2.5-1-5.6-1-3 0-5.6 1-2.5 1-4.3 2.8-1.8 1.8-2.7 4.4-1 2.6-1 5.7zM367.2 559.2h7q0-2.6-1.1-4.4-1.1-1.9-2.8-3.1-1.7-1.3-4-1.9-2-.6-4.4-.6-3.2 0-5.7 1-2.5 1.1-4.3 3-1.7 2-2.6 4.6-.9 2.6-.9 5.7 0 3 1 5.4 1 2.5 2.7 4.3 1.7 1.8 4.2 2.8 2.5 1 5.4 1 5.3 0 8.7-2.8 3.3-2.8 4-8h-7q-.3 2.4-1.7 4-1.4 1.3-4 1.3-1.7 0-2.9-.7-1.2-.8-1.9-2-.6-1.2-1-2.7-.2-1.4-.2-2.9t.3-3q.3-1.5 1-2.7.7-1.3 2-2 1-.9 2.8-.9 4.7 0 5.4 4.6zM379.1 539.8v36.5h7.3v-9l2.8-2.8 7.2 11.8h8.8l-11-16.7 9.9-9.7h-8.6l-9.1 9.5v-19.6H379zM439.7 560.3h-11.8q0-.8.3-1.8t1-1.8q.7-.9 1.8-1.4 1.2-.7 3-.7 2.6 0 3.9 1.5 1.3 1.4 1.8 4.2zm-11.8 4.6h19q.2-3.1-.5-6-.7-2.7-2.3-5-1.6-2.1-4.1-3.4-2.5-1.3-5.9-1.3-3 0-5.5 1-2.4 1.1-4.2 3-1.8 1.9-2.8 4.4-1 2.6-1 5.5 0 3 1 5.6 1 2.6 2.7 4.4 1.7 1.9 4.2 2.9t5.6 1q4.5 0 7.7-2 3.1-2.1 4.7-6.9H440q-.4 1.2-2 2.4-1.5 1-3.7 1-3 0-4.7-1.5-1.7-1.6-1.8-5.1zM451.4 539.8v36.5h7.3v-36.5h-7.3zM482.2 560.3h-11.8q0-.8.3-1.8t1-1.8q.7-.9 1.8-1.4 1.2-.7 2.9-.7 2.7 0 4 1.5 1.3 1.4 1.8 4.2zm-11.8 4.6h19q.2-3.1-.5-6-.7-2.7-2.3-5-1.6-2.1-4.1-3.4-2.5-1.3-5.9-1.3-3 0-5.5 1-2.5 1.1-4.2 3-1.8 1.9-2.8 4.4-1 2.6-1 5.5 0 3 1 5.6 1 2.6 2.6 4.4 1.8 1.9 4.3 2.9t5.6 1q4.5 0 7.7-2 3.1-2.1 4.7-6.9h-6.4q-.4 1.2-2 2.4-1.5 1-3.7 1-3.1 0-4.7-1.5-1.7-1.6-1.8-5.1zM494 549.9v26.4h7.2V561q0-2 .5-3.1.6-1.3 1.4-1.9.8-.6 1.6-.8.9-.3 1.4-.3 1.7 0 2.6.6.9.6 1.3 1.5.4 1 .4 2.2v17.1h7.3v-14.7l.2-2.4q.2-1.2.7-2.2.5-1 1.5-1.5 1-.6 2.5-.6t2.4.5q.9.5 1.3 1.4.5.9.6 2l.1 2.5v15h7.3v-17.7q0-2.5-.8-4.3-.7-1.8-2-3-1.2-1-3-1.6-1.8-.5-3.9-.5-2.8 0-4.8 1.3t-3.2 3q-1-2.4-3.1-3.3-2-1-4.6-1-2.6 0-4.6 1.1-2 1.1-3.4 3.2h-.1v-3.6h-6.9zM557.8 560.3H546q0-.8.3-1.8t1-1.8q.7-.9 1.8-1.4 1.2-.7 2.9-.7 2.6 0 4 1.5 1.2 1.4 1.8 4.2zm-11.8 4.6h19q.2-3.1-.5-6-.7-2.7-2.3-5-1.6-2.1-4.1-3.4-2.5-1.3-6-1.3-3 0-5.4 1-2.5 1.1-4.3 3-1.7 1.9-2.7 4.4-1 2.6-1 5.5 0 3 1 5.6.9 2.6 2.6 4.4 1.8 1.9 4.3 2.9t5.6 1q4.5 0 7.7-2 3.1-2.1 4.7-6.9h-6.4q-.4 1.2-2 2.4-1.6 1-3.8 1-3 0-4.6-1.5-1.7-1.6-1.8-5.1zM569.3 549.9v26.4h7.3v-13.8q0-4 1.3-5.8 1.3-1.8 4.3-1.8 2.6 0 3.6 1.6t1 4.9v14.9h7.3v-16.2q0-2.5-.5-4.5-.4-2-1.5-3.4-1-1.4-3-2.2-1.8-.8-4.7-.8-2.3 0-4.5 1t-3.5 3.4h-.2v-3.7h-6.9zM608.8 549.9v-8h-7.2v8h-4.4v4.9h4.4v15.5q0 2 .6 3.2.7 1.3 1.8 2 1.2.6 2.7.8 1.5.3 3.2.3l2.2-.1q1.1 0 2-.2v-5.6l-1 .1h-1.2q-1.9 0-2.5-.5-.6-.6-.6-2.5v-13h5.3v-4.9h-5.3z"/></g><path d="M2.5 6v660M882.5 6v660" fill="none" stroke="#000" stroke-width="5" stroke-dasharray="15,5"/><path d="M42.5 6l-20 10 20 10M22.5 16h261.3m299 0h279.7M842.5 6l20 10-20 10" fill="none" stroke="#000" stroke-width="3"/><g><path d="M307.2 12.5q.1-1.8.9-3 .8-1.1 2-1.8 1.1-.7 2.6-1 1.5-.3 3-.3l2.8.2q1.4.2 2.5.8 1.2.5 2 1.5.7 1 .7 2.7V21l.1 2.3q.1 1.1.5 1.7h-5l-.3-.8-.1-1q-1.2 1.3-2.8 1.8-1.6.4-3.3.4-1.3 0-2.4-.3-1.1-.3-2-1-.8-.6-1.3-1.6t-.5-2.4q0-1.6.6-2.6.5-1 1.4-1.6.8-.6 2-.8 1-.4 2.2-.5l2.2-.3 1.9-.3q.8-.2 1.3-.6.5-.4.5-1.2 0-.8-.3-1.3-.2-.5-.7-.7-.4-.3-1-.4h-1.2q-1.5 0-2.3.6-.9.6-1 2h-5zm11.5 3.6l-.8.5-1 .2-1.1.2-1.2.2q-.6 0-1.2.3-.5.1-.9.5-.4.2-.6.7-.3.4-.3 1.1 0 .7.3 1.2.2.4.6.7l1 .4h1.2q1.4 0 2.2-.4.8-.5 1.2-1.2.4-.7.5-1.4v-3zM337.5 25l6-18.1h-4.8l-3.9 12.3L331 7h-5.3l6.2 18h5.6zM345.4 12.5q.1-1.8 1-3 .7-1.1 1.9-1.8t2.6-1q1.5-.3 3-.3l2.8.2q1.4.2 2.6.8 1.1.5 1.8 1.5.8 1 .8 2.7V21l.1 2.3q.2 1.1.5 1.7h-5l-.3-.8v-1q-1.3 1.3-2.9 1.8-1.6.4-3.3.4-1.3 0-2.4-.3-1.1-.3-2-1-.8-.6-1.3-1.6-.4-1-.4-2.4 0-1.6.5-2.6.6-1 1.4-1.6.9-.6 2-.8 1-.4 2.2-.5l2.2-.3 2-.3q.8-.2 1.3-.6.4-.4.4-1.2 0-.8-.3-1.3-.2-.5-.7-.7-.4-.3-1-.4h-1.2q-1.5 0-2.3.6-.9.6-1 2h-5zM357 16l-.8.5-1 .2-1.1.2-1.2.2q-.6 0-1.1.3-.6.1-1 .5-.4.2-.6.7-.3.4-.3 1.1 0 .7.3 1.2.2.4.7.7l1 .4h1q1.6 0 2.4-.4.8-.5 1.2-1.2l.4-1.4.1-1.1V16zM370.8 4.1V0h-5v4.1h5zm-5 2.8v18h5V7h-5zM374.8 0v25h5V0h-5zM383.5 12.5q.1-1.8.9-3 .7-1.1 2-1.8 1.1-.7 2.6-1 1.5-.3 3-.3l2.8.2q1.4.2 2.5.8 1.2.5 2 1.5.7 1 .7 2.7v11.7q.2 1.1.6 1.7h-5l-.3-.8-.1-1q-1.2 1.3-2.8 1.8-1.6.4-3.3.4-1.3 0-2.4-.3-1.1-.3-2-1-.8-.6-1.3-1.6t-.5-2.4q0-1.6.6-2.6.5-1 1.4-1.6.8-.6 2-.8 1-.4 2.2-.5l2.2-.3 1.9-.3q.8-.2 1.3-.6.5-.4.5-1.2 0-.8-.3-1.3-.2-.5-.7-.7-.4-.3-1-.4h-1.2q-1.5 0-2.4.6-.8.6-1 2h-4.9zM395 16l-.8.5-1 .2-1.2.2q-.6 0-1.1.2-.6 0-1.2.3-.5.1-1 .5-.3.2-.5.7-.3.4-.3 1.1 0 .7.3 1.2.2.4.6.7l1 .4h1.2q1.4 0 2.2-.4.8-.5 1.2-1.2.4-.7.5-1.4v-3zM417 16l-.2 2.1q-.3 1-.8 1.9-.5.8-1.3 1.3-.8.4-2 .4-1 0-1.8-.4-.8-.5-1.3-1.3-.6-.8-.8-1.9-.3-1-.3-2.1 0-1.2.3-2.2.2-1 .8-1.9.5-.8 1.3-1.3.8-.4 1.9-.4 1.1 0 1.9.4.8.5 1.3 1.3t.8 1.9q.2 1 .2 2.2zM403.7 0v25h4.8v-2.3q.8 1.5 2.4 2.1 1.6.6 3.6.6 1.4 0 2.7-.5 1.3-.6 2.4-1.7 1-1.2 1.7-3t.7-4.3q0-2.5-.7-4.2-.6-1.9-1.7-3-1-1.2-2.4-1.7-1.3-.6-2.7-.6-1.7 0-3.3.7-1.5.6-2.4 2V0h-5zM425.3 0v25h5V0h-5zM446.3 14h-8l.2-1.2q.2-.7.6-1.3l1.3-1q.8-.3 2-.3 1.8 0 2.7 1 .9 1 1.2 2.8zm-8 3.1h13q.2-2-.3-4-.5-1.9-1.6-3.4t-2.8-2.4q-1.8-.9-4-.9-2.1 0-3.9.7-1.6.8-2.9 2-1.2 1.3-1.8 3-.7 1.8-.7 3.9 0 2 .6 3.8.7 1.8 1.9 3 1.2 1.3 2.9 2 1.7.6 3.8.6 3.1 0 5.3-1.4 2.1-1.4 3.2-4.6h-4.4q-.2.8-1.3 1.6-1 .7-2.6.7-2.1 0-3.2-1-1.1-1.1-1.2-3.6zM467.8 19.1h-4.7q0 1.8.8 3t2 2q1.1.7 2.6 1 1.5.3 3.1.3 1.5 0 3-.3 1.5-.2 2.7-1 1.1-.7 1.8-2 .8-1.1.8-3 0-1.2-.5-2-.5-.9-1.3-1.5t-1.9-.9l-2-.6-2.1-.5-1.9-.4-1.2-.7q-.5-.4-.5-1 0-.7.3-1 .2-.3.6-.5l1-.2h.9q1.3 0 2.3.5 1 .4 1 1.9h4.8q-.2-1.7-.9-2.8-.7-1.1-1.8-1.8-1-.6-2.5-1-1.3-.2-2.8-.2-1.5 0-2.9.3-1.4.2-2.5.9-1.1.6-1.8 1.7-.7 1.2-.7 3 0 1.1.5 2 .5.7 1.3 1.3l1.8.9 2.2.5q2.6.6 4 1.2 1.6.5 1.6 1.6 0 .7-.3 1.2-.3.4-.8.7l-1 .3-1.2.2-1.4-.2-1.2-.5q-.5-.4-.9-1-.3-.6-.3-1.4zM491.9 21.7q-1.2 0-2-.5-.9-.4-1.4-1.2-.5-.8-.7-1.9-.2-1-.2-2.1l.2-2.2q.2-1 .7-1.8.5-.8 1.3-1.3t2-.5q1.3 0 2 .5.9.5 1.4 1.3.6.8.8 1.9.2 1 .2 2.1l-.2 2.1q-.2 1-.7 1.9-.5.8-1.4 1.2-.8.5-2 .5zM482.8 7v24.4h5v-8.5q1 1.3 2.3 2 1.5.6 3.1.6 2 0 3.5-.7 1.5-.8 2.5-2 1-1.4 1.5-3 .5-1.7.5-3.6 0-1.9-.5-3.6-.5-1.8-1.5-3.2-1-1.3-2.6-2-1.5-.9-3.6-.9-1.7 0-3.1.7-1.4.6-2.3 2.1h-.1V7h-4.7zM504 12.5q0-1.8.8-3 .8-1.1 2-1.8t2.6-1q1.6-.3 3-.3l2.8.2q1.4.2 2.6.8 1.1.5 1.9 1.5.7 1 .7 2.7V21l.1 2.3q.2 1.1.5 1.7h-5l-.3-.8v-1q-1.3 1.3-2.9 1.8-1.6.4-3.2.4-1.3 0-2.5-.3-1-.3-2-1-.8-.6-1.3-1.6-.4-1-.4-2.4 0-1.6.5-2.6.6-1 1.4-1.6.9-.6 2-.8 1-.4 2.2-.5l2.2-.3 2-.3q.8-.2 1.3-.6.5-.4.4-1.2 0-.8-.2-1.3-.3-.5-.7-.7l-1-.4h-1.3q-1.5 0-2.3.6-.8.6-1 2h-5zm11.4 3.6l-.8.5-1 .2-1.1.2-1.2.2q-.6 0-1.1.3-.5.1-1 .5l-.6.7q-.2.4-.2 1.1 0 .7.2 1.2l.7.7 1 .4h1.1q1.5 0 2.3-.4.8-.5 1.2-1.2.4-.7.4-1.4l.1-1.1V16zM536.5 13.3h4.9q-.1-1.8-.9-3-.7-1.3-1.9-2.2-1.1-.8-2.6-1.3-1.5-.4-3.1-.4-2.2 0-4 .7-1.7.8-2.9 2.1-1.1 1.3-1.8 3.1-.6 1.8-.6 4 0 2 .7 3.7.7 1.6 1.9 2.9 1.1 1.2 2.8 1.9 1.7.7 3.8.7 3.6 0 5.9-2 2.3-1.8 2.8-5.4h-4.8q-.3 1.6-1.2 2.7-1 1-2.8 1-1.1 0-2-.6-.7-.5-1.2-1.3-.5-.9-.7-1.9l-.2-2 .2-2q.2-1 .7-1.9.5-.9 1.3-1.4.8-.5 2-.5 3.2 0 3.7 3zM556.4 14h-8l.1-1.2q.2-.7.7-1.3l1.3-1q.8-.3 2-.3 1.8 0 2.6 1 1 1 1.3 2.8zm-8 3.1h13q.1-2-.4-4-.5-1.9-1.6-3.4-1-1.5-2.8-2.4-1.7-.9-4-.9-2 0-3.8.7-1.7.8-2.9 2-1.2 1.3-1.9 3-.7 1.8-.7 3.9 0 2 .7 3.8.6 1.8 1.8 3 1.2 1.3 3 2 1.7.6 3.8.6 3 0 5.2-1.4t3.3-4.6h-4.4q-.3.8-1.3 1.6-1.1.7-2.6.7-2.1 0-3.3-1-1-1.1-1.2-3.6z"/></g><path fill="none" stroke="#000" stroke-width="4.3" d="M1282.5 637.2V18h75.7v619.2zM1433.8 637.2V18h75.7v619.2zM1585.2 637.2V18h75.7v619.2zM1736.5 637.2V18h75.7v619.2z"/><g><path d="M1768.4 180.7q-1.7 0-3.2-.3-1.5-.4-2.7-1.2-1.2-.7-2-1.9-.6-1.1-.6-2.8 0-1.5.7-2.7.7-1.2 1.9-2 1.2-.7 2.7-1 1.5-.4 3.2-.4 1.6 0 3.2.3 1.5.4 2.7 1.1 1.2.8 1.8 2 .7 1.2.7 2.7 0 1.7-.7 2.8-.6 1.2-1.8 2-1.2.7-2.7 1-1.6.4-3.2.4zm23.2-19.3h-36.4v6.9h3.4q-2.2 1.2-3.2 3.5-.9 2.3-.9 5.2 0 2 .8 4 .9 2 2.5 3.5 1.7 1.5 4.3 2.5 2.7 1 6.3 1 3.6 0 6.2-1 2.7-1 4.4-2.5 1.7-1.6 2.5-3.5.8-2 .8-4 0-2.4-1-4.7-.9-2.2-3-3.6h13.3v-7.3zM1791.6 192.8h-36.4v7.2h36.4zM1768.4 212.2q1.5 0 3 .3 1.6.3 2.8 1 1.2.8 1.9 2t.7 3q0 2-.7 3.1-.7 1.3-2 2-1.1.8-2.6 1-1.6.4-3.1.4-1.6 0-3.2-.3-1.4-.3-2.7-1-1.1-.8-1.9-2-.7-1.3-.7-3.1 0-1.9.7-3.1.8-1.2 2-2 1.2-.7 2.6-1 1.6-.3 3.2-.3zm0-7.3q-3.2 0-5.8 1-2.5 1-4.4 2.8-1.7 1.7-2.7 4.3-1 2.5-1 5.6 0 3 1 5.6 1 2.5 2.7 4.3 1.9 1.8 4.4 2.8 2.6 1 5.8 1 3.1 0 5.7-1t4.4-2.8q1.8-1.8 2.8-4.3 1-2.5 1-5.6 0-3.1-1-5.6-1-2.6-2.8-4.3-1.8-1.8-4.4-2.8-2.6-1-5.7-1zM1772.3 254.8v7.1q2.5-.1 4.4-1.2 1.9-1 3-2.8 1.4-1.7 2-3.9.6-2.1.6-4.5 0-3.2-1-5.7-1.2-2.5-3-4.2-2-1.8-4.6-2.7-2.6-.9-5.7-.9-3 0-5.5 1-2.4 1-4.2 2.7-1.8 1.8-2.8 4.2-1 2.5-1 5.5 0 5.2 2.8 8.6 2.7 3.4 8 4v-7q-2.5-.3-4-1.7-1.4-1.4-1.4-4 0-1.7.8-2.8.8-1.2 2-2 1.2-.6 2.6-.9 1.5-.3 3-.3 1.4 0 3 .3 1.4.3 2.7 1 1.2.8 2 2 .8 1.1.8 2.9 0 4.6-4.5 5.3zM1791.6 266.7h-36.4v7.3h9l2.8 2.8-11.8 7.3v8.7l16.7-11 9.7 10V283l-9.5-9.1h19.5v-7.3zM1771.2 327.3v-11.8q.8 0 1.7.3 1 .4 1.9 1 .8.7 1.4 1.9.6 1.1.6 2.9 0 2.6-1.4 3.9-1.4 1.3-4.2 1.8zm-4.6-11.8v19q3 .3 5.9-.4 2.8-.7 5-2.4 2.2-1.6 3.5-4 1.3-2.6 1.3-6 0-3-1-5.4-1.2-2.5-3-4.3-1.9-1.8-4.4-2.7-2.6-1-5.6-1-3 0-5.6 1-2.5.9-4.4 2.6-1.8 1.8-2.8 4.3-1 2.5-1 5.6 0 4.5 2 7.6 2 3.2 6.8 4.7v-6.4q-1.2-.3-2.3-1.9-1-1.6-1-3.8 0-3 1.5-4.7 1.6-1.6 5.1-1.8zM1791.6 339h-36.4v7.3h36.4zM1771.2 369.8V358q.8 0 1.7.3 1 .3 1.9 1 .8.7 1.4 1.8.6 1.2.6 3 0 2.6-1.4 3.9-1.4 1.3-4.2 1.8zm-4.6-11.8v19q3 .3 5.9-.4 2.8-.8 5-2.4 2.2-1.6 3.5-4 1.3-2.6 1.3-6 0-3-1-5.5-1.2-2.4-3-4.2-1.9-1.8-4.4-2.8-2.6-1-5.6-1-3 0-5.6 1-2.5 1-4.4 2.7-1.8 1.7-2.8 4.2-1 2.5-1 5.6 0 4.5 2 7.7t6.8 4.7v-6.4q-1.2-.3-2.3-2-1-1.5-1-3.7 0-3 1.5-4.7 1.6-1.6 5.1-1.8zM1781.6 381.6h-26.4v7.2h15.3q2 0 3.1.6 1.2.5 1.8 1.3.7.8 1 1.6l.2 1.4q0 1.8-.6 2.6-.6 1-1.6 1.3-1 .4-2.1.5h-17.1v7.3h14.7l2.4.1q1.2.2 2.1.7 1 .6 1.6 1.5.6 1 .6 2.5t-.5 2.4q-.5 1-1.4 1.4-.9.4-2 .5-1.2.2-2.6.2h-15v7.2h17.7q2.6 0 4.4-.7 1.8-.7 3-2 1-1.3 1.6-3 .5-1.9.5-4 0-2.7-1.3-4.7-1.4-2-3.1-3.2 2.5-1 3.4-3.2 1-2 1-4.5 0-2.6-1.1-4.7-1.2-2-3.2-3.4h3.6v-7zM1771.2 445.4v-11.8q.8 0 1.7.3 1 .3 1.9 1 .8.7 1.4 1.8.6 1.2.6 3 0 2.6-1.4 3.9-1.4 1.3-4.2 1.8zm-4.6-11.8v19q3 .3 5.9-.5 2.8-.7 5-2.3 2.2-1.6 3.5-4 1.3-2.6 1.3-6 0-3-1-5.5-1.2-2.4-3-4.2-1.9-1.8-4.4-2.8-2.6-1-5.6-1-3 0-5.6 1-2.5 1-4.4 2.7-1.8 1.7-2.8 4.2-1 2.5-1 5.6 0 4.5 2 7.7t6.8 4.7v-6.4q-1.2-.3-2.3-2-1-1.5-1-3.7 0-3 1.5-4.7 1.6-1.6 5.1-1.8zM1781.6 457h-26.4v7.2h13.8q4 0 5.8 1.3 1.8 1.4 1.8 4.3 0 2.6-1.7 3.6-1.5 1-4.8 1h-15v7.3h16.3q2.5 0 4.5-.4t3.4-1.5q1.4-1 2.2-3 .8-1.8.8-4.7 0-2.3-1-4.5-1.1-2.2-3.4-3.6v-.2h3.7V457zM1781.6 496.5h7.9v-7.3h-8v-4.4h-4.8v4.4h-15.5q-2 0-3.3.7-1.2.6-1.9 1.8-.6 1.1-.8 2.6-.3 1.5-.3 3.2v2.2l.3 2h5.6l-.2-1v-1.2q0-1.8.6-2.4.6-.6 2.5-.6h13v5.3h4.9v-5.3z"/></g><g><path d="M1616.8 180.7q-1.6 0-3.1-.3-1.6-.4-2.7-1.2-1.2-.7-2-1.9-.6-1.1-.6-2.8 0-1.5.7-2.7.7-1.2 1.9-2 1.1-.7 2.7-1 1.5-.4 3.1-.4 1.7 0 3.2.3 1.6.4 2.7 1.1 1.2.8 1.9 2t.7 2.7q0 1.7-.7 2.8-.7 1.2-1.9 2-1.1.7-2.7 1-1.5.4-3.2.4zm23.3-19.3h-36.4v6.9h3.3q-2.2 1.2-3 3.5-1 2.3-1 5.2 0 2 .8 4t2.5 3.5q1.7 1.5 4.3 2.5 2.7 1 6.3 1 3.6 0 6.2-1 2.7-1 4.3-2.5 1.7-1.6 2.5-3.5.9-2 .9-4 0-2.4-1-4.7-1-2.2-3-3.6h13.3v-7.3zM1640.1 192.8h-36.4v7.2h36.4zM1616.8 212.2q1.6 0 3.1.3 1.6.3 2.7 1 1.2.8 2 2 .7 1.2.7 3 0 2-.8 3.1-.7 1.3-1.9 2-1.1.8-2.7 1-1.5.4-3 .4-1.7 0-3.2-.3-1.5-.3-2.7-1-1.2-.8-1.9-2-.7-1.3-.7-3.1 0-1.9.7-3.1.7-1.2 1.9-2 1.2-.7 2.7-1 1.5-.3 3.1-.3zm0-7.3q-3.1 0-5.7 1-2.5 1-4.4 2.8-1.8 1.7-2.7 4.3-1 2.5-1 5.6 0 3 1 5.6 1 2.5 2.7 4.3 1.9 1.8 4.4 2.8 2.6 1 5.7 1 3.2 0 5.7-1 2.6-1 4.4-2.8 1.9-1.8 2.8-4.3 1-2.5 1-5.6 0-3.1-1-5.6-1-2.6-2.8-4.3-1.8-1.8-4.4-2.8-2.5-1-5.7-1zM1620.8 254.8v7.1q2.5-.1 4.3-1.2 2-1 3.2-2.8 1.2-1.7 1.9-3.9.6-2.1.6-4.5 0-3.2-1.1-5.7-1-2.5-3-4.2-2-1.8-4.6-2.7-2.6-.9-5.6-.9-3 0-5.5 1-2.4 1-4.2 2.7-1.8 1.8-2.8 4.2-1 2.5-1 5.5 0 5.2 2.7 8.6 2.8 3.4 8 4v-7q-2.4-.3-3.9-1.7-1.4-1.4-1.4-4 0-1.7.8-2.8.7-1.2 2-2 1.1-.6 2.6-.9 1.5-.3 3-.3 1.4 0 2.9.3t2.7 1q1.3.8 2 2 .9 1.1.9 2.9 0 4.6-4.5 5.3zM1640.1 266.7h-36.4v7.3h9l2.8 2.8-11.8 7.3v8.7l16.7-11 9.7 10V283l-9.5-9.1h19.5v-7.3zM1619.7 327.3v-11.8q.8 0 1.7.3 1 .4 1.9 1 .8.7 1.4 1.9.6 1.1.6 2.9 0 2.6-1.4 3.9-1.5 1.3-4.2 1.8zm-4.6-11.8v19q3 .3 5.9-.4 2.8-.7 5-2.4 2.2-1.6 3.4-4 1.4-2.6 1.4-6 0-3-1.1-5.4-1-2.5-3-4.3-1.8-1.8-4.4-2.7-2.5-1-5.5-1t-5.6 1q-2.5.9-4.4 2.6-1.8 1.8-2.8 4.3-1 2.5-1 5.6 0 4.5 2 7.6 2 3.2 6.8 4.7v-6.4q-1.2-.3-2.3-1.9-1.1-1.6-1.1-3.8 0-3 1.6-4.7 1.6-1.6 5-1.8zM1640.1 339h-36.4v7.3h36.4zM1619.7 369.8V358q.8 0 1.7.3 1 .3 1.9 1 .8.7 1.4 1.8.6 1.2.6 3 0 2.6-1.4 3.9-1.5 1.3-4.2 1.8zM1615 358v19q3 .3 5.9-.4 2.8-.8 5-2.4 2.2-1.6 3.4-4 1.4-2.6 1.4-6 0-3-1.1-5.5-1-2.4-3-4.2-1.8-1.8-4.4-2.8-2.5-1-5.5-1t-5.6 1q-2.5 1-4.4 2.7-1.8 1.7-2.8 4.2-1 2.5-1 5.6 0 4.5 2 7.7t6.8 4.7v-6.4q-1.2-.3-2.3-2-1.1-1.5-1.1-3.7 0-3 1.6-4.7 1.6-1.6 5-1.8zM1630 381.6h-26.3v7.2h15.3q2 0 3 .6 1.3.5 2 1.3.6.8.8 1.6l.3 1.4q0 1.8-.7 2.6-.5 1-1.5 1.3-1 .4-2.1.5h-17.1v7.3h14.7l2.4.1q1.2.2 2.1.7 1 .6 1.5 1.5.7 1 .7 2.5t-.6 2.4q-.5 1-1.3 1.4-.9.4-2 .5l-2.6.2h-15v7.2h17.7q2.6 0 4.4-.7 1.8-.7 3-2 1-1.3 1.6-3 .5-1.9.5-4 0-2.7-1.4-4.7-1.3-2-3-3.2 2.4-1 3.4-3.2 1-2 1-4.5 0-2.6-1.2-4.7-1-2-3.1-3.4h3.6v-7zM1619.7 445.4v-11.8q.8 0 1.7.3 1 .3 1.9 1 .8.7 1.4 1.8.6 1.2.6 3 0 2.6-1.4 3.9-1.5 1.3-4.2 1.8zm-4.6-11.8v19q3 .3 5.9-.5 2.8-.7 5-2.3 2.2-1.6 3.4-4 1.4-2.6 1.4-6 0-3-1.1-5.5-1-2.4-3-4.2-1.8-1.8-4.4-2.8-2.5-1-5.5-1t-5.6 1q-2.5 1-4.4 2.7-1.8 1.7-2.8 4.2-1 2.5-1 5.6 0 4.5 2 7.7t6.8 4.7v-6.4q-1.2-.3-2.3-2-1.1-1.5-1.1-3.7 0-3 1.6-4.7 1.6-1.6 5-1.8zM1630 457h-26.3v7.2h13.8q4 0 5.8 1.3 1.8 1.4 1.8 4.3 0 2.6-1.7 3.6-1.6 1-4.8 1h-15v7.3h16.3q2.4 0 4.4-.4 2-.4 3.5-1.5 1.4-1 2.2-3 .8-1.8.8-4.7 0-2.3-1.1-4.5-1-2.2-3.3-3.6v-.2h3.7V457zM1630 496.5h8v-7.3h-8v-4.4h-4.8v4.4h-15.6q-2 0-3.2.7-1.2.6-1.9 1.8-.6 1.1-.8 2.6-.3 1.5-.3 3.2v2.2l.3 2h5.6l-.2-1v-1.2q0-1.8.6-2.4.6-.6 2.4-.6h13.1v5.3h4.9v-5.3z"/></g><g><path d="M1465.3 180.7q-1.6 0-3.2-.3-1.5-.4-2.7-1.2-1.2-.7-1.9-1.9-.6-1.1-.6-2.8 0-1.5.6-2.7.7-1.2 2-2 1.1-.7 2.6-1 1.6-.4 3.2-.4 1.7 0 3.2.3 1.5.4 2.7 1.1 1.2.8 1.9 2t.7 2.7q0 1.7-.7 2.8-.7 1.2-1.9 2-1.2.7-2.7 1-1.5.4-3.2.4zm23.3-19.3H1452v6.9h3.4q-2.2 1.2-3.1 3.5-1 2.3-1 5.2 0 2 .9 4 .8 2 2.5 3.5t4.3 2.5q2.6 1 6.2 1 3.7 0 6.3-1 2.6-1 4.3-2.5 1.7-1.6 2.5-3.5.8-2 .8-4 0-2.4-1-4.7-.9-2.2-2.9-3.6h13.3v-7.3zM1488.6 192.8H1452v7.2h36.5zM1465.3 212.2q1.6 0 3.1.3t2.7 1q1.2.8 2 2 .7 1.2.7 3 0 2-.8 3.1-.7 1.3-1.9 2-1.2.8-2.7 1-1.5.4-3.1.4t-3.1-.3q-1.5-.3-2.7-1-1.2-.8-2-2-.6-1.3-.6-3.1 0-1.9.7-3.1.7-1.2 1.9-2 1.2-.7 2.7-1 1.5-.3 3.1-.3zm0-7.3q-3.2 0-5.7 1-2.6 1-4.4 2.8-1.8 1.7-2.8 4.3-1 2.5-1 5.6 0 3 1 5.6 1 2.5 2.8 4.3 1.8 1.8 4.4 2.8 2.5 1 5.7 1t5.7-1q2.6-1 4.4-2.8 1.8-1.8 2.8-4.3 1-2.5 1-5.6 0-3.1-1-5.6-1-2.6-2.8-4.3-1.8-1.8-4.4-2.8-2.5-1-5.7-1zM1469.2 254.8v7.1q2.5-.1 4.4-1.2 1.9-1 3.1-2.8 1.3-1.7 1.9-3.9.6-2.1.6-4.5 0-3.2-1-5.7-1.1-2.5-3-4.2-2-1.8-4.6-2.7-2.6-.9-5.7-.9-3 0-5.5 1-2.4 1-4.2 2.7-1.8 1.8-2.8 4.2-1 2.5-1 5.5 0 5.2 2.8 8.6 2.7 3.4 8 4v-7q-2.5-.3-4-1.7-1.4-1.4-1.4-4 0-1.7.8-2.8.8-1.2 2-2 1.2-.6 2.7-.9 1.4-.3 2.9-.3 1.4 0 3 .3 1.5.3 2.7 1 1.3.8 2 2 .8 1.1.8 2.9 0 4.6-4.5 5.3zM1488.6 266.7H1452v7.3h9.1l2.7 2.8-11.8 7.3v8.7l16.7-11 9.7 10V283l-9.5-9.1h19.6v-7.3zM1468.2 327.3v-11.8q.8 0 1.7.3 1 .4 1.9 1 .8.7 1.4 1.9.6 1.1.6 2.9 0 2.6-1.4 3.9-1.4 1.3-4.2 1.8zm-4.6-11.8v19q3 .3 5.9-.4 2.8-.7 5-2.4 2.2-1.6 3.4-4 1.4-2.6 1.4-6 0-3-1.1-5.4-1-2.5-3-4.3-1.8-1.8-4.3-2.7-2.6-1-5.6-1-3 0-5.6 1-2.5.9-4.4 2.6-1.8 1.8-2.8 4.3-1 2.5-1 5.6 0 4.5 2 7.6 2 3.2 6.8 4.7v-6.4q-1.2-.3-2.3-1.9-1-1.6-1-3.8 0-3 1.5-4.7 1.6-1.6 5.1-1.8zM1488.6 339H1452v7.3h36.5zM1468.2 369.8V358q.8 0 1.7.3 1 .3 1.9 1 .8.7 1.4 1.8.6 1.2.6 3 0 2.6-1.4 3.9-1.4 1.3-4.2 1.8zm-4.6-11.8v19q3 .3 5.9-.4 2.8-.8 5-2.4 2.2-1.6 3.4-4 1.4-2.6 1.4-6 0-3-1.1-5.5-1-2.4-3-4.2-1.8-1.8-4.3-2.8-2.6-1-5.6-1-3 0-5.6 1-2.5 1-4.4 2.7-1.8 1.7-2.8 4.2-1 2.5-1 5.6 0 4.5 2 7.7t6.8 4.7v-6.4q-1.2-.3-2.3-2-1-1.5-1-3.7 0-3 1.5-4.7 1.6-1.6 5.1-1.8zM1478.5 381.6h-26.4v7.2h15.3q2 0 3.2.6 1.2.5 1.8 1.3.7.8.9 1.6l.2 1.4q0 1.8-.6 2.6-.6 1-1.5 1.3-1 .4-2.2.5h-17.1v7.3h14.7l2.4.1q1.3.2 2.2.7 1 .6 1.5 1.5.6 1 .6 2.5t-.5 2.4q-.5 1-1.4 1.4-.8.4-2 .5-1.2.2-2.5.2h-15v7.2h17.7q2.5 0 4.3-.7 1.9-.7 3-2t1.6-3q.5-1.9.5-4 0-2.7-1.3-4.7t-3-3.2q2.4-1 3.4-3.2 1-2 1-4.5 0-2.6-1.2-4.7-1.1-2-3.1-3.4h3.5v-7zM1468.2 445.4v-11.8q.8 0 1.7.3 1 .3 1.9 1 .8.7 1.4 1.8.6 1.2.6 3 0 2.6-1.4 3.9-1.4 1.3-4.2 1.8zm-4.6-11.8v19q3 .3 5.9-.5 2.8-.7 5-2.3 2.2-1.6 3.4-4 1.4-2.6 1.4-6 0-3-1.1-5.5-1-2.4-3-4.2-1.8-1.8-4.3-2.8-2.6-1-5.6-1-3 0-5.6 1-2.5 1-4.4 2.7-1.8 1.7-2.8 4.2-1 2.5-1 5.6 0 4.5 2 7.7t6.8 4.7v-6.4q-1.2-.3-2.3-2-1-1.5-1-3.7 0-3 1.5-4.7 1.6-1.6 5.1-1.8zM1478.5 457h-26.4v7.2h13.9q4 0 5.7 1.3 1.8 1.4 1.8 4.3 0 2.6-1.6 3.6t-4.9 1h-14.9v7.3h16.3q2.4 0 4.4-.4 2-.4 3.4-1.5 1.5-1 2.2-3 .8-1.8.8-4.7 0-2.3-1-4.5t-3.3-3.6v-.2h3.6V457zM1478.5 496.5h8v-7.3h-8v-4.4h-4.8v4.4H1458q-2 0-3.2.7-1.2.6-1.9 1.8-.7 1.1-.9 2.6-.2 1.5-.2 3.2v2.2q0 1.2.2 2h5.6l-.1-1v-1.2q0-1.8.6-2.4.6-.6 2.4-.6h13v5.3h5v-5.3z"/></g><g><path d="M1315.8 180.7q-1.6 0-3.2-.3-1.5-.4-2.7-1.2-1.2-.7-1.9-1.9-.6-1.1-.6-2.8 0-1.5.6-2.7.7-1.2 2-2 1.1-.7 2.6-1 1.6-.4 3.2-.4 1.7 0 3.2.3 1.5.4 2.7 1.1 1.2.8 1.9 2t.7 2.7q0 1.7-.7 2.8-.7 1.2-1.9 2-1.2.7-2.7 1-1.5.4-3.2.4zm23.3-19.3h-36.5v6.9h3.4q-2.2 1.2-3.1 3.5-1 2.3-1 5.2 0 2 .9 4 .8 2 2.5 3.5t4.3 2.5q2.6 1 6.2 1 3.7 0 6.3-1 2.6-1 4.3-2.5 1.7-1.6 2.5-3.5.8-2 .8-4 0-2.4-1-4.7-.9-2.2-2.9-3.6h13.3v-7.3zM1339.1 192.8h-36.5v7.2h36.5zM1315.8 212.2q1.6 0 3.1.3t2.7 1q1.2.8 2 2 .7 1.2.7 3 0 2-.8 3.1-.7 1.3-1.9 2-1.2.8-2.7 1-1.5.4-3.1.4t-3.1-.3q-1.5-.3-2.7-1-1.2-.8-2-2-.6-1.3-.6-3.1 0-1.9.7-3.1.7-1.2 1.9-2 1.2-.7 2.7-1 1.5-.3 3.1-.3zm0-7.3q-3.2 0-5.7 1-2.6 1-4.4 2.8-1.8 1.7-2.8 4.3-1 2.5-1 5.6 0 3 1 5.6 1 2.5 2.8 4.3 1.8 1.8 4.4 2.8 2.5 1 5.7 1t5.7-1q2.6-1 4.4-2.8 1.8-1.8 2.8-4.3 1-2.5 1-5.6 0-3.1-1-5.6-1-2.6-2.8-4.3-1.8-1.8-4.4-2.8-2.5-1-5.7-1zM1319.7 254.8v7.1q2.5-.1 4.4-1.2 1.9-1 3.1-2.8 1.3-1.7 1.9-3.9.6-2.1.6-4.5 0-3.2-1-5.7-1.1-2.5-3-4.2-2-1.8-4.6-2.7-2.6-.9-5.7-.9-3 0-5.5 1-2.4 1-4.2 2.7-1.8 1.8-2.8 4.2-1 2.5-1 5.5 0 5.2 2.8 8.6 2.7 3.4 8 4v-7q-2.5-.3-4-1.7-1.4-1.4-1.4-4 0-1.7.8-2.8.8-1.2 2-2 1.2-.6 2.7-.9 1.4-.3 2.9-.3 1.4 0 3 .3 1.5.3 2.7 1 1.3.8 2 2 .8 1.1.8 2.9 0 4.6-4.5 5.3zM1339.1 266.7h-36.5v7.3h9.1l2.7 2.8-11.8 7.3v8.7l16.7-11 9.7 10V283l-9.5-9.1h19.6v-7.3zM1318.7 327.3v-11.8q.8 0 1.7.3 1 .4 1.9 1 .8.7 1.4 1.9.6 1.1.6 2.9 0 2.6-1.4 3.9-1.4 1.3-4.2 1.8zm-4.6-11.8v19q3 .3 5.9-.4 2.8-.7 5-2.4 2.2-1.6 3.4-4 1.4-2.6 1.4-6 0-3-1.1-5.4-1-2.5-3-4.3-1.8-1.8-4.3-2.7-2.6-1-5.6-1-3 0-5.6 1-2.5.9-4.4 2.6-1.8 1.8-2.8 4.3-1 2.5-1 5.6 0 4.5 2 7.6 2 3.2 6.8 4.7v-6.4q-1.2-.3-2.3-1.9-1-1.6-1-3.8 0-3 1.5-4.7 1.6-1.6 5.1-1.8zM1339.1 339h-36.5v7.3h36.5zM1318.7 369.8V358q.8 0 1.7.3 1 .3 1.9 1 .8.7 1.4 1.8.6 1.2.6 3 0 2.6-1.4 3.9-1.4 1.3-4.2 1.8zm-4.6-11.8v19q3 .3 5.9-.4 2.8-.8 5-2.4 2.2-1.6 3.4-4 1.4-2.6 1.4-6 0-3-1.1-5.5-1-2.4-3-4.2-1.8-1.8-4.3-2.8-2.6-1-5.6-1-3 0-5.6 1-2.5 1-4.4 2.7-1.8 1.7-2.8 4.2-1 2.5-1 5.6 0 4.5 2 7.7t6.8 4.7v-6.4q-1.2-.3-2.3-2-1-1.5-1-3.7 0-3 1.5-4.7 1.6-1.6 5.1-1.8zM1329 381.6h-26.4v7.2h15.3q2 0 3.1.6 1.3.5 1.9 1.3.6.8.8 1.6l.3 1.4q0 1.8-.6 2.6-.6 1-1.6 1.3-1 .4-2.1.5h-17.1v7.3h14.7l2.4.1q1.2.2 2.1.7 1 .6 1.6 1.5.6 1 .6 2.5t-.5 2.4q-.5 1-1.4 1.4-.9.4-2 .5-1.2.2-2.5.2h-15v7.2h17.7q2.5 0 4.3-.7 1.8-.7 3-2 1-1.3 1.6-3 .5-1.9.5-4 0-2.7-1.3-4.7t-3-3.2q2.4-1 3.3-3.2 1-2 1-4.5 0-2.6-1.1-4.7-1.1-2-3.2-3.4h3.6v-7zM1318.7 445.4v-11.8q.8 0 1.7.3 1 .3 1.9 1 .8.7 1.4 1.8.6 1.2.6 3 0 2.6-1.4 3.9-1.4 1.3-4.2 1.8zm-4.6-11.8v19q3 .3 5.9-.5 2.8-.7 5-2.3 2.2-1.6 3.4-4 1.4-2.6 1.4-6 0-3-1.1-5.5-1-2.4-3-4.2-1.8-1.8-4.3-2.8-2.6-1-5.6-1-3 0-5.6 1-2.5 1-4.4 2.7-1.8 1.7-2.8 4.2-1 2.5-1 5.6 0 4.5 2 7.7t6.8 4.7v-6.4q-1.2-.3-2.3-2-1-1.5-1-3.7 0-3 1.5-4.7 1.6-1.6 5.1-1.8zM1329 457h-26.4v7.2h13.8q4 0 5.8 1.3 1.8 1.4 1.8 4.3 0 2.6-1.6 3.6t-4.9 1h-14.9v7.3h16.2q2.5 0 4.5-.4t3.4-1.5q1.4-1 2.2-3 .8-1.8.8-4.7 0-2.3-1-4.5t-3.4-3.6v-.2h3.7V457zM1329 496.5h8v-7.3h-8v-4.4h-4.9v4.4h-15.5q-2 0-3.2.7-1.3.6-2 1.8-.6 1.1-.8 2.6-.3 1.5-.3 3.2v2.2l.3 2h5.6l-.1-1v-1.2q0-1.8.5-2.4.6-.6 2.5-.6h13v5.3h4.9v-5.3z"/></g><path d="M1220.5 653.5h660.3M1220.5 4h660.3" fill="none" stroke="#000" stroke-width="4.3" stroke-dasharray="12.89108273,4.29702758"/><path d="M1220.5 624l10 14.8 10-14.8M1230.5 638.8V483.3m0-281.4V18.7M1220.5 33.5l10-14.8 10 14.8" fill="none" stroke="#000" stroke-width="2.6"/><g><path d="M1227.1 468.3q-1.8-.1-2.9-.9-1.2-.8-1.9-2-.7-1.1-1-2.6-.3-1.5-.3-3 0-1.4.3-2.8.1-1.4.7-2.5.5-1.2 1.6-2 1-.7 2.6-.7h9.4l2.3-.1q1.2-.1 1.7-.5v5l-.8.3-1 .1q1.3 1.2 1.8 2.8.5 1.6.5 3.3 0 1.3-.3 2.4-.3 1.1-1 2-.7.8-1.7 1.3t-2.4.5q-1.5 0-2.5-.6-1-.5-1.6-1.4-.6-.8-1-2l-.4-2.2-.3-2.2q0-1-.3-1.9-.2-.8-.6-1.3-.4-.5-1.2-.5-.8 0-1.2.3-.5.2-.8.7-.3.4-.3 1l-.1 1.2q0 1.5.6 2.3.6.9 2.1 1v5zm3.7-11.5q.3.3.4.8l.3 1 .1 1.1.2 1.2.3 1.2.5.9q.3.4.7.6.5.3 1.2.3.6 0 1.1-.3.5-.2.7-.6l.4-1v-1.2q0-1.4-.4-2.2-.5-.8-1.2-1.2-.7-.4-1.4-.5h-3zM1239.6 438l-18-6v4.8l12.3 3.9-12.4 3.8v5.3l18.1-6.2V438zM1227.1 430q-1.8 0-2.9-.8-1.2-.8-1.9-2t-1-2.6q-.3-1.5-.3-3 0-1.4.3-2.8.1-1.4.7-2.6.5-1.1 1.6-1.8 1-.8 2.6-.8h9.4l2.3-.1q1.2-.2 1.7-.5v5l-.8.3h-1q1.3 1.3 1.8 2.9.5 1.6.5 3.3 0 1.3-.3 2.4-.3 1.1-1 2-.7.8-1.7 1.3-1 .4-2.4.4-1.5 0-2.5-.5-1-.6-1.6-1.4-.6-.9-1-2l-.4-2.2-.3-2.2q0-1-.3-2-.2-.8-.6-1.3-.4-.4-1.2-.4-.8 0-1.2.3-.5.2-.8.7-.3.4-.3 1l-.1 1.2q0 1.5.6 2.3.6.9 2.1 1v5zm3.7-11.4q.3.3.4.8l.3 1 .1 1.1.2 1.2.3 1.1.5 1q.3.4.7.6.5.3 1.2.3.6 0 1.1-.3.5-.2.7-.6l.4-1v-1.2q0-1.5-.4-2.3-.5-.8-1.2-1.1-.7-.4-1.4-.5l-1-.1h-2zM1218.7 404.7h-4v5h4v-5zm2.8 5h18.1v-5h-18v5zM1214.6 400.7h25v-5h-25v5zM1227.1 392q-1.8-.1-2.9-.9-1.2-.7-1.9-2-.7-1.1-1-2.6-.3-1.5-.3-3 0-1.4.3-2.8.1-1.4.7-2.5.5-1.2 1.6-2 1-.6 2.6-.6h9.4q1.2 0 2.3-.2 1.2-.1 1.7-.5v5l-.8.3-1 .1q1.3 1.2 1.8 2.8.5 1.6.5 3.3 0 1.3-.3 2.4-.3 1.1-1 2-.7.8-1.7 1.3t-2.4.5q-1.5 0-2.5-.6-1-.5-1.6-1.4-.6-.8-1-2l-.4-2.2-.3-2.2q0-1-.3-1.9-.2-.8-.6-1.3-.4-.5-1.2-.5-.8 0-1.2.3-.5.2-.8.7-.3.4-.3 1l-.1 1.2q0 1.5.6 2.4.6.8 2.1 1v4.9zm3.7-11.5q.3.3.4.8l.3 1 .1 1.2.2 1.1.3 1.2.5 1 .7.5q.5.3 1.2.3.6 0 1.1-.3.5-.2.7-.6.3-.4.4-1v-1.2q0-1.4-.4-2.2-.5-.8-1.2-1.2-.7-.4-1.4-.5h-3zM1230.6 358.5l2.2.2q1 .3 1.8.8t1.3 1.3q.5.8.5 2 0 1-.5 1.8t-1.3 1.3q-.8.6-1.8.8-1 .3-2.2.3-1.2 0-2.2-.3-1-.2-1.9-.8-.8-.5-1.2-1.3-.5-.8-.5-1.9 0-1.1.5-1.9.4-.8 1.2-1.3.8-.5 1.9-.8 1-.2 2.2-.2zm-16 13.3h25V367h-2.3q1.5-.8 2.2-2.4.6-1.6.6-3.6 0-1.4-.6-2.7-.5-1.3-1.7-2.4-1.1-1-3-1.7-1.7-.7-4.2-.7t-4.3.7q-1.8.7-3 1.7-1.1 1-1.7 2.4-.6 1.3-.6 2.7 0 1.7.7 3.3.6 1.5 2 2.4h-9v5zM1214.6 350.2h25v-5h-25v5zM1228.6 329.2v8l-1.1-.2q-.7-.2-1.3-.6-.6-.5-1-1.3t-.4-2q0-1.8 1-2.7 1-.9 2.8-1.2zm3.2 8v-13q-2.1-.2-4 .3-2 .5-3.5 1.6t-2.3 2.8q-1 1.8-1 4 0 2.1.8 3.9.7 1.6 2 2.9 1.3 1.2 3 1.8 1.8.7 3.8.7 2.1 0 3.8-.6 1.8-.7 3-1.9 1.3-1.2 2-2.9t.7-3.8q0-3.1-1.4-5.3-1.4-2.1-4.7-3.2v4.4q.9.2 1.6 1.3.8 1 .8 2.6 0 2.1-1.1 3.2t-3.5 1.2zM1233.8 307.7v4.7q1.8 0 3-.8t2-2q.7-1.1 1-2.6.3-1.5.3-3.1 0-1.5-.3-3t-1-2.7q-.8-1.1-2-1.8-1.2-.8-3-.8-1.2 0-2 .5-1 .5-1.5 1.3-.6.8-1 1.9l-.6 2-.4 2.1-.5 1.9q-.2.7-.7 1.2-.4.5-1 .5t-1-.3q-.3-.2-.4-.6l-.3-1v-.8q0-1.4.5-2.4t2-1V296q-1.8.2-2.8.9-1.2.7-1.8 1.8-.7 1-1 2.5-.3 1.3-.3 2.8 0 1.5.3 2.9t1 2.5q.6 1.1 1.7 1.8t2.9.7q1.1 0 2-.5.8-.5 1.3-1.3.6-.8 1-1.8l.5-2.2q.5-2.6 1.1-4 .6-1.6 1.7-1.6.6 0 1.1.3.4.3.7.8l.4 1V305.4l-.6 1.2q-.4.5-1 .9-.5.3-1.4.3zM1236.4 283.6q0 1.2-.5 2-.5.9-1.3 1.4-.8.5-1.8.7-1 .2-2.2.2l-2.1-.2q-1-.2-1.9-.7-.8-.5-1.3-1.3t-.5-2q0-1.3.5-2 .5-.9 1.3-1.4.9-.5 1.9-.8 1-.2 2.1-.2l2.2.2q1 .2 1.8.7.8.5 1.3 1.4.5.8.5 2zm-14.9 9.1h24.5v-5h-8.6q1.3-1 2-2.3.7-1.4.7-3.1 0-2-.8-3.5-.7-1.5-2-2.5t-3-1.5q-1.7-.5-3.5-.5-2 0-3.7.5-1.8.5-3.1 1.5t-2.1 2.6q-.8 1.5-.8 3.7 0 1.6.6 3 .7 1.4 2.2 2.3v.1h-2.4v4.7zM1227.1 271.6q-1.8-.2-2.9-1-1.2-.7-1.9-1.9t-1-2.6q-.3-1.6-.3-3t.3-2.8q.1-1.4.7-2.6.5-1.1 1.6-1.9 1-.7 2.6-.7h9.4l2.3-.1q1.2-.2 1.7-.5v5l-.8.3h-1q1.3 1.3 1.8 2.9.5 1.6.5 3.3 0 1.2-.3 2.4-.3 1-1 2-.7.8-1.7 1.3-1 .4-2.4.4-1.5 0-2.5-.5-1-.6-1.6-1.4-.6-.9-1-2l-.4-2.2-.3-2.2q0-1.1-.3-2-.2-.8-.6-1.3-.4-.5-1.2-.4-.8 0-1.2.3-.5.2-.8.7-.3.4-.3 1l-.1 1.2q0 1.5.6 2.3.6.8 2.1 1v5zm3.7-11.5q.3.3.4.8l.3 1 .1 1.1.2 1.2.3 1.1.5 1 .7.6q.5.2 1.2.2.6 0 1.1-.2.5-.2.7-.7.3-.4.4-1v-1.1q0-1.5-.4-2.3-.5-.8-1.2-1.2-.7-.4-1.4-.4l-1-.1h-2zM1228 239V234q-1.8.1-3.1.9-1.3.7-2.1 1.9-1 1.1-1.3 2.6-.4 1.5-.4 3.1 0 2.2.7 4 .7 1.7 2 2.9 1.3 1.1 3.2 1.8 1.7.6 3.8.6 2 0 3.8-.7 1.7-.7 2.9-1.9 1.2-1.1 2-2.8.6-1.7.6-3.8 0-3.6-1.9-5.9-1.9-2.3-5.5-2.8v4.8q1.7.3 2.7 1.2 1 1 1 2.8 0 1.1-.5 2-.6.7-1.4 1.2-.8.5-1.8.7l-2 .2-2-.2q-1.1-.2-2-.7-.8-.5-1.3-1.3-.6-.8-.6-2 0-3.2 3.1-3.7zM1228.6 219.1v8l-1.1-.1q-.7-.2-1.3-.7-.6-.5-1-1.3t-.4-2q0-1.8 1-2.6 1-1 2.8-1.3zm3.2 8v-13q-2.1-.1-4 .4-2 .5-3.5 1.6-1.5 1-2.3 2.8-1 1.7-1 4 0 2 .8 3.8.7 1.7 2 2.9t3 1.9q1.8.7 3.8.7 2.1 0 3.8-.7 1.8-.6 3-1.8 1.3-1.2 2-3 .7-1.7.7-3.8 0-3-1.4-5.2t-4.7-3.3v4.4q.9.3 1.6 1.3.8 1.1.8 2.6 0 2.1-1.1 3.3-1.1 1-3.5 1.2z"/></g><g><path d="M71 758.4h4l4.4 20 3.5-12.8h3.5l3.6 12.7 4.3-20h4l-5.8 24.8h-3.9l-4-13.6-3.9 13.6H77L71 758.4zM123.8 763.4q-1.3-1-2.7-1.4-1.3-.5-3-.5-3.7 0-5.7 2.4t-2 6.9V783h-4.1v-24.8h4v4.9q1-2.6 3.2-4 2.1-1.4 5-1.4 1.5 0 2.8.3 1.3.4 2.5 1.2v4.2zM132.5 758.4h10.4V780h8v3.2h-20.1v-3.2h8v-18.3h-6.3v-3.2zm6.3-9.6h4v5.2h-4v-5.2zM166.3 751.3v7h9.2v3.2h-9.2V775q0 2.8 1 3.9 1 1 3.6 1h4.6v3.3h-5q-4.5 0-6.4-1.8-1.9-1.9-1.9-6.4v-13.4h-6.6v-3.1h6.6v-7h4zM187 758.4h10.3V780h8v3.2h-20.1v-3.2h8v-18.3H187v-3.2zm6.2-9.6h4.1v5.2h-4v-5.2zM230.4 767.8V783h-4.1v-15.3q0-3.4-1.2-5-1.2-1.5-3.7-1.5-2.8 0-4.4 2-1.5 2-1.5 5.8v14h-4v-24.7h4v3.7q1.1-2.2 3-3.2 1.8-1.1 4.3-1.1 3.8 0 5.7 2.5 1.9 2.4 1.9 7.5zM253.3 770.5q0-4.6-1.5-7-1.5-2.3-4.3-2.3-3 0-4.6 2.4-1.5 2.3-1.5 7 0 4.5 1.5 6.9 1.6 2.4 4.6 2.4 2.8 0 4.3-2.4t1.5-7zm4 11q0 5.6-2.6 8.4-2.6 3-7.7 3-1.7 0-3.5-.4-1.8-.3-3.7-1v-4q2.2 1 4 1.6 1.7.5 3.2.5 3.3 0 4.8-1.8t1.5-5.7V779.2q-1 2-2.6 3-1.7 1-4.1 1-4.4 0-7-3.4-2.5-3.5-2.5-9.3 0-5.8 2.6-9.3 2.5-3.4 6.9-3.4 2.4 0 4 .9 1.7 1 2.7 3v-3.3h4v23.1zM263.8 767.1h23.4v3.7h-23.4v-3.7zM303.7 760.9q.8-1.6 2-2.4 1-.7 2.7-.7 3 0 4.2 2.3 1.3 2.3 1.3 8.7V783H310v-14.2q0-5.2-.5-6.5-.6-1.2-2.2-1.2-1.7 0-2.4 1.3-.6 1.4-.6 6.4v14.2h-3.8v-14.2q0-5.3-.6-6.5-.6-1.2-2.2-1.2-1.7 0-2.3 1.3-.6 1.4-.6 6.4v14.2h-3.7v-24.7h3.7v2q.7-1.3 1.8-2 1.1-.6 2.5-.6 1.7 0 2.8.7 1.1.8 1.7 2.4zM329.6 761.2q-3 0-4.7 2.4-1.6 2.4-1.6 7.1 0 4.7 1.6 7.2 1.6 2.4 4.7 2.4t4.7-2.4q1.6-2.5 1.6-7.2t-1.6-7q-1.6-2.5-4.7-2.5zm0-3.4q5.2 0 7.9 3.3t2.7 9.6q0 6.4-2.7 9.7-2.7 3.3-7.9 3.3-5.1 0-7.9-3.3-2.7-3.3-2.7-9.7 0-6.3 2.7-9.6 2.8-3.3 8-3.3zM362.2 761.5v-12.8h4v34.4h-4V780q-1 1.8-2.7 2.8-1.7 1-4 1-4.4 0-7-3.5-2.6-3.5-2.6-9.6 0-6 2.6-9.5 2.6-3.4 7-3.4 2.3 0 4 1 1.7.9 2.7 2.7zm-12 9.2q0 4.8 1.5 7.2 1.5 2.4 4.5 2.4 2.9 0 4.4-2.4 1.6-2.5 1.6-7.2t-1.6-7q-1.5-2.5-4.4-2.5-3 0-4.5 2.4t-1.5 7.1zM395.2 768.7v2h-17.6v.1q-.2 5 1.9 7.3 2.1 2.2 6 2.2 1.9 0 4-.6t4.5-2v4.1q-2.3 1-4.4 1.4-2.2.5-4.2.5-5.8 0-9-3.4-3.3-3.5-3.3-9.6 0-5.9 3.2-9.4t8.5-3.5q4.7 0 7.5 3.2 2.7 3.2 2.9 7.7zm-4-1.2q-.4-2.6-2-4.4-1.6-1.9-4.6-1.9-2.9 0-4.8 2-1.9 1.9-2 4.3H391zM407.1 758.4h7v8h-7v-8zm0 16.6h7v8h-7v-8zM475.3 767.8V783h-4.1v-15.3q0-3.4-1.2-5-1.1-1.5-3.6-1.5-2.9 0-4.4 2-1.6 2-1.6 5.8v14h-4v-34.4h4v13.4q1.1-2.2 3-3.2 1.8-1.1 4.4-1.1 3.8 0 5.6 2.4 1.9 2.5 1.9 7.6zM492.9 761.2q-3.1 0-4.7 2.4t-1.6 7.1q0 4.7 1.6 7.2 1.6 2.4 4.7 2.4t4.7-2.4q1.6-2.5 1.6-7.2t-1.6-7q-1.6-2.5-4.7-2.5zm0-3.4q5.1 0 7.9 3.3 2.7 3.3 2.7 9.6 0 6.4-2.7 9.7-2.7 3.3-8 3.3-5 0-7.8-3.3-2.7-3.3-2.7-9.7 0-6.3 2.7-9.6t7.9-3.3zM532 763.4q-1.3-1-2.6-1.4-1.4-.5-3-.5-3.8 0-5.8 2.4t-2 6.9V783h-4.1v-24.8h4v4.9q1.1-2.6 3.2-4t5-1.4q1.5 0 2.8.3 1.3.4 2.5 1.2v4.2zM540.7 758.4h10.4V780h8v3.2H539v-3.2h8v-18.3h-6.3v-3.2zm6.3-9.6h4.1v5.2h-4v-5.2zM566 758.3h17.9v3.7l-14.2 17.8h14.2v3.3h-18.5v-3.8l14.2-17.7H566v-3.3zM601.8 761.2q-3.1 0-4.7 2.4t-1.6 7.1q0 4.7 1.6 7.2 1.6 2.4 4.7 2.4 3 0 4.7-2.4 1.5-2.5 1.5-7.2t-1.5-7q-1.6-2.5-4.7-2.5zm0-3.4q5.1 0 7.8 3.3 2.8 3.3 2.8 9.6 0 6.4-2.8 9.7-2.7 3.3-7.8 3.3-5.2 0-8-3.3-2.6-3.3-2.6-9.7 0-6.3 2.7-9.6t7.9-3.3zM638.6 767.8V783h-4.1v-15.3q0-3.4-1.2-5-1.2-1.5-3.6-1.5-2.9 0-4.4 2-1.6 2-1.6 5.8v14h-4v-24.7h4v3.7q1.1-2.2 3-3.2 1.8-1.1 4.4-1.1 3.7 0 5.6 2.5 1.9 2.4 1.9 7.5zM656.1 751.3v7h9.3v3.2H656V775q0 2.8 1 3.9 1.1 1 3.7 1h4.6v3.3h-5q-4.6 0-6.4-1.8-2-1.9-2-6.4v-13.4h-6.5v-3.1h6.6v-7h4zM685.3 770.6h-1.4q-3.5 0-5.3 1.3-1.8 1.2-1.8 3.7 0 2.3 1.3 3.5 1.4 1.2 3.8 1.2 3.3 0 5.3-2.3 1.9-2.3 1.9-6.4v-1h-3.8zm7.9-1.6v14H689v-3.6q-1.3 2.2-3.3 3.3-2 1-4.8 1-3.8 0-6-2-2.3-2.2-2.3-5.8 0-4.1 2.8-6.3 2.8-2.1 8.1-2.1h5.5v-.7q0-3-1.5-4.3-1.5-1.3-4.7-1.3-2.1 0-4.2.6-2.2.6-4.2 1.7v-4q2.3-.9 4.3-1.3 2.1-.5 4-.5 3.1 0 5.3 1 2.2.9 3.5 2.7.9 1 1.2 2.7.4 1.6.4 4.9zM712.9 774.1q0 2.8 1 4.2 1 1.4 3 1.4h4.7v3.4h-5.1q-3.7 0-5.7-2.3-2-2.4-2-6.7v-22.3h-6.5v-3.2h10.6V774zM726.5 767.1h23.4v3.7h-23.4v-3.7zM765 751.3v7h9.2v3.2H765V775q0 2.8 1 3.9 1 1 3.7 1h4.5v3.3h-5q-4.5 0-6.4-1.8-1.9-1.9-1.9-6.4v-13.4h-6.6v-3.1h6.6v-7h4zM799 770.7q0-4.7-1.6-7.1-1.5-2.4-4.4-2.4-3 0-4.5 2.4t-1.5 7.1q0 4.7 1.5 7.2 1.5 2.4 4.5 2.4t4.4-2.4q1.5-2.4 1.5-7.2zm-12-9.2q1-1.8 2.6-2.8 1.8-1 4-1 4.5 0 7 3.5 2.6 3.4 2.6 9.5 0 6-2.6 9.6-2.5 3.4-7 3.4-2.2 0-4-1-1.6-.9-2.6-2.7v3h-4.1v-34.3h4v12.8z"/></g><g><path d="M1205.4 758.4h4l4.3 20 3.5-12.8h3.5l3.6 12.7 4.3-20h4l-5.8 24.8h-3.9l-4-13.6-3.9 13.6h-3.9l-5.7-24.7zM1258 763.4q-1.2-1-2.6-1.4-1.3-.5-3-.5-3.7 0-5.7 2.4t-2 6.9V783h-4.1v-24.8h4v4.9q1-2.6 3.2-4 2-1.4 5-1.4 1.5 0 2.8.3 1.3.4 2.5 1.2v4.2zM1266.8 758.4h10.4V780h8v3.2H1265v-3.2h8.1v-18.3h-6.3v-3.2zm6.3-9.6h4v5.2h-4v-5.2zM1300.6 751.3v7h9.2v3.2h-9.2V775q0 2.8 1 3.9 1 1 3.6 1h4.6v3.3h-5q-4.5 0-6.4-1.8-1.9-1.9-1.9-6.4v-13.4h-6.6v-3.1h6.6v-7h4zM1321.2 758.4h10.4V780h8v3.2h-20.1v-3.2h8v-18.3h-6.3v-3.2zm6.3-9.6h4v5.2h-4v-5.2zM1364.6 767.8V783h-4v-15.3q0-3.4-1.2-5-1.2-1.5-3.7-1.5-2.8 0-4.4 2-1.5 2-1.5 5.8v14h-4v-24.7h4v3.7q1-2.2 3-3.2 1.8-1.1 4.3-1.1 3.8 0 5.7 2.5 1.8 2.4 1.8 7.5zM1387.6 770.5q0-4.6-1.5-7-1.5-2.3-4.3-2.3-3 0-4.6 2.4-1.6 2.3-1.6 7 0 4.5 1.6 6.9 1.6 2.4 4.6 2.4 2.8 0 4.3-2.4t1.5-7zm4 11q0 5.6-2.6 8.4-2.6 3-7.7 3-1.7 0-3.5-.4-1.8-.3-3.7-1v-4q2.2 1 4 1.6 1.7.5 3.2.5 3.3 0 4.8-1.8t1.5-5.7V779.2q-1 2-2.7 3-1.6 1-4 1-4.4 0-7-3.4-2.5-3.5-2.5-9.3 0-5.8 2.5-9.3 2.6-3.4 7-3.4 2.3 0 4 .9 1.7 1 2.7 3v-3.3h4v23.1zM1398.1 767.1h23.4v3.7h-23.4v-3.7zM1438 760.9q.8-1.6 1.9-2.4 1.2-.7 2.8-.7 3 0 4.2 2.3 1.2 2.3 1.2 8.7V783h-3.7v-14.2q0-5.2-.6-6.5-.5-1.2-2-1.2-1.9 0-2.5 1.3-.7 1.4-.7 6.4v14.2h-3.7v-14.2q0-5.3-.6-6.5-.6-1.2-2.3-1.2-1.6 0-2.2 1.3-.6 1.4-.6 6.4v14.2h-3.7v-24.7h3.7v2q.7-1.3 1.8-2 1-.6 2.5-.6 1.7 0 2.8.7 1 .8 1.7 2.4zM1463.9 761.2q-3.1 0-4.7 2.4t-1.6 7.1q0 4.7 1.6 7.2 1.6 2.4 4.7 2.4t4.7-2.4q1.6-2.5 1.6-7.2t-1.6-7q-1.6-2.5-4.7-2.5zm0-3.4q5.1 0 7.9 3.3 2.7 3.3 2.7 9.6 0 6.4-2.7 9.7-2.7 3.3-8 3.3-5 0-7.8-3.3-2.7-3.3-2.7-9.7 0-6.3 2.7-9.6t7.9-3.3zM1496.5 761.5v-12.8h4v34.4h-4V780q-1 1.8-2.8 2.8-1.6 1-3.9 1-4.4 0-7-3.5-2.6-3.5-2.6-9.6 0-6 2.6-9.5 2.6-3.4 7-3.4 2.3 0 4 1 1.7.9 2.6 2.7zm-12 9.2q0 4.8 1.5 7.2 1.5 2.4 4.4 2.4 3 0 4.5-2.4 1.5-2.5 1.5-7.2t-1.5-7q-1.5-2.5-4.5-2.5-2.9 0-4.4 2.4-1.5 2.4-1.5 7.1zM1529.5 768.7v2h-17.6v.1q-.2 5 1.9 7.3 2.1 2.2 6 2.2 1.9 0 4-.6t4.5-2v4.1q-2.3 1-4.5 1.4-2 .5-4.1.5-5.8 0-9-3.4-3.3-3.5-3.3-9.6 0-5.9 3.2-9.4t8.5-3.5q4.7 0 7.4 3.2 2.8 3.2 3 7.7zm-4.1-1.2q-.3-2.6-1.9-4.4-1.6-1.9-4.6-1.9-3 0-4.8 2-2 1.9-2 4.3h13.3zM1541.4 758.4h6.9v8h-6.9v-8zm0 16.6h6.9v8h-6.9v-8zM1588.6 758.4h4.2l7.2 20.7 7.2-20.7h4.2l-8.8 24.7h-5.2l-8.8-24.7zM1638.3 768.7v2h-17.6v.1q-.2 5 1.9 7.3 2.1 2.2 6 2.2 1.9 0 4-.6t4.5-2v4.1q-2.3 1-4.4 1.4-2.2.5-4.2.5-5.8 0-9-3.4-3.3-3.5-3.3-9.6 0-5.9 3.2-9.4t8.5-3.5q4.7 0 7.5 3.2 2.7 3.2 2.9 7.7zm-4-1.2q-.4-2.6-2-4.4-1.6-1.9-4.6-1.9-2.9 0-4.8 2-1.9 1.9-2 4.3h13.3zM1666.3 763.4q-1.3-1-2.7-1.4-1.3-.5-3-.5-3.7 0-5.8 2.4-2 2.4-2 6.9V783h-4v-24.8h4v4.9q1-2.6 3.2-4 2-1.4 5-1.4 1.5 0 2.8.3 1.3.4 2.5 1.2v4.2zM1681.6 751.3v7h9.2v3.2h-9.2V775q0 2.8 1 3.9 1 1 3.6 1h4.6v3.3h-5q-4.5 0-6.4-1.8-1.9-1.9-1.9-6.4v-13.4h-6.6v-3.1h6.6v-7h4zM1702.2 758.4h10.4V780h8v3.2h-20.2v-3.2h8.1v-18.3h-6.3v-3.2zm6.3-9.6h4v5.2h-4v-5.2zM1745.9 781.8q-1.7 1-3.4 1.4-1.7.5-3.5.5-5.8 0-9-3.4-3.3-3.5-3.3-9.6 0-6 3.3-9.5 3.2-3.4 9-3.4 1.7 0 3.4.4 1.7.5 3.5 1.5v4.2q-1.6-1.4-3.3-2-1.6-.7-3.6-.7-3.9 0-6 2.5-2 2.4-2 7t2 7.1q2.2 2.5 6 2.5 2 0 3.8-.7 1.6-.6 3-2v4.2zM1765.2 770.6h-1.4q-3.5 0-5.3 1.3-1.8 1.2-1.8 3.7 0 2.3 1.3 3.5 1.4 1.2 3.7 1.2 3.4 0 5.3-2.3 2-2.3 2-6.4v-1h-3.8zm7.9-1.6v14h-4.1v-3.6q-1.3 2.2-3.3 3.3-2 1-4.8 1-3.8 0-6-2-2.3-2.2-2.3-5.8 0-4.1 2.8-6.3 2.7-2.1 8.1-2.1h5.5v-.7q0-3-1.5-4.3-1.5-1.3-4.8-1.3-2 0-4.2.6-2 .6-4 1.7v-4q2.2-.9 4.2-1.3 2.1-.5 4-.5 3.1 0 5.3 1 2.2.9 3.5 2.7.8 1 1.2 2.7.4 1.6.4 4.9zM1792.8 774.1q0 2.8 1 4.2 1 1.4 3 1.4h4.7v3.4h-5.2q-3.6 0-5.6-2.3-2-2.4-2-6.7v-22.3h-6.5v-3.2h10.6V774zM1806.4 767.1h23.4v3.7h-23.4v-3.7zM1847.2 774.1q0 2.8 1 4.2 1 1.4 3 1.4h4.7v3.4h-5.2q-3.6 0-5.6-2.3-2-2.4-2-6.7v-22.3h-6.5v-3.2h10.6V774zM1884 763.4q-1.3-1-2.7-1.4-1.3-.5-3-.5-3.7 0-5.8 2.4-2 2.4-2 6.9V783h-4v-24.8h4v4.9q1-2.6 3.2-4 2-1.4 5-1.4 1.5 0 2.8.3 1.3.4 2.5 1.2v4.2z"/></g></svg>