<svg xmlns="http://www.w3.org/2000/svg" height="1643.6" width="2850.8" viewBox="0 0 2672.6 1540.9"><path fill="none" stroke="currentColor" stroke-width="8" stroke-linecap="round" stroke-linejoin="round" d="M862 540.9h240v120H862zM1142 540.9h360v120h-360zM1542 540.9h200v120h-200zM862 700.9h400v120H862zM1302 700.9h320v120h-320zM862 860.9h320v120H862zM1222 860.9h200v120h-200zM1462 860.9h280v120h-280zM1662 700.9h200v120h-200zM862 1020.9h240v120H862z"/><path fill="none" stroke="#000" stroke-width="8" d="M810.8 480.3h1092v720h-1092zM809.8 158.6h1094.1v245.1H809.8zM809.8 1289.1h1094.1v245.1H809.8z"/><path d="M1930.9 278.3h80v1160h-80M1930.9 798.3h320" fill="none" stroke="#000" stroke-width="5"/><g style="line-height:125%" font-weight="700" font-size="147.7" font-family="Helvetica Neue" letter-spacing="0" word-spacing="0"><path d="M2348.4 797q0 4.7-1 9.1-1 4.5-3.3 7.9-2.2 3.4-5.6 5.4-3.2 2-8 2-4.5 0-8-2-3.3-2-5.5-5.4-2.3-3.4-3.3-7.9-1-4.4-1-9.1 0-4.9 1-9.3 1-4.5 3.3-7.9 2.2-3.3 5.6-5.3 3.4-2 8-2 4.7 0 8 2t5.5 5.3q2.2 3.4 3.3 7.9 1 4.4 1 9.3zm-56-67.4v105.5h20v-9.8h.3q3.4 6.4 10 9 6.7 2.7 15 2.7 5.8 0 11.4-2.4 5.7-2.3 10-7.2 4.7-4.9 7.5-12.4 2.8-7.7 2.8-18.2t-2.8-18q-2.8-7.7-7.4-12.5-4.4-5-10-7.3-5.7-2.3-11.4-2.3-7.1 0-13.8 2.8-6.5 2.6-10.3 8.5h-.3v-38.4h-21zM2383.3 729.6v105.5h21V729.6h-21zM2439.4 797q0-4.6.9-9 .9-4.5 3-7.9 2.1-3.4 5.7-5.4 3.5-2.2 8.8-2.2 5.4 0 8.9 2.2 3.7 2 5.8 5.4 2.2 3.4 3 7.9 1 4.4 1 9t-1 9q-.8 4.3-3 7.8-2.1 3.4-5.8 5.5-3.5 2-8.9 2-5.3 0-8.8-2-3.6-2.1-5.8-5.5-2-3.5-3-7.8-.8-4.4-.8-9zm-21 0q0 9.1 2.8 16.5t8 12.7q5.2 5.2 12.4 8t16.2 2.8q9 0 16.3-2.8 7.4-2.8 12.5-8 5.2-5.3 8-12.7 2.8-7.4 2.8-16.5 0-9.2-2.8-16.6-2.8-7.5-8-12.7-5.1-5.3-12.5-8-7.3-3-16.3-3t-16.2 3q-7.2 2.7-12.4 8-5.2 5.2-8 12.7-2.8 7.4-2.8 16.6zM2562.7 785.6h20.6q-.5-7.4-3.6-12.7-3-5.5-8.1-9-4.9-3.7-11.2-5.5-6.2-1.7-13-1.7-9.3 0-16.6 3-7.2 3.2-12.2 8.8-5 5.4-7.7 13.1-2.5 7.5-2.5 16.4 0 8.6 2.8 15.8 2.8 7 7.8 12.3 5 5.1 12.1 8 7.3 2.9 15.8 2.9 15.2 0 25-8 9.7-8 11.8-23.2h-20.2q-1 7.1-5.2 11.4-4 4.1-11.5 4.1-4.9 0-8.3-2.2-3.4-2.2-5.4-5.6-2-3.5-2.9-7.8-.8-4.3-.8-8.4 0-4.3.8-8.6 1-4.4 3-8 2.2-3.7 5.6-5.9 3.4-2.3 8.4-2.3 13.5 0 15.5 13.1zM2597.2 729.6v105.5h21v-26.3l8-7.8 21 34h25.4l-32-48.2 28.8-28h-24.8l-26.5 27.4v-56.6h-21z" style="-inkscape-font-specification:'Helvetica Neue Bold'"/></g><g style="line-height:125%" font-weight="700" font-size="81.5" font-family="Helvetica Neue" letter-spacing="0" word-spacing="0"><path d="M974.4 741.2v-9.6H963v9.6h11.5zm-11.5 6.5v42.1h11.5v-42.1H963zM983.5 747.7v42.1h11.6v-22q0-6.5 2.1-9.3 2.2-2.8 6.9-2.8 4.1 0 5.8 2.6 1.6 2.5 1.6 7.7v23.8h11.6v-26q0-3.8-.8-7-.6-3.3-2.3-5.5-1.7-2.2-4.8-3.5-2.9-1.3-7.5-1.3-3.7 0-7.2 1.7t-5.7 5.3h-.3v-5.8h-11zM1032.3 731.6v58.2h11.5v-58.2h-11.5zM1064.8 741.2v-9.6h-11.5v9.6h11.5zm-11.5 6.5v42.1h11.5v-42.1h-11.5zM1074 747.7v42.1h11.5v-22q0-6.5 2.1-9.3 2.2-2.8 6.9-2.8 4.1 0 5.8 2.6 1.6 2.5 1.6 7.7v23.8h11.6v-26q0-3.8-.8-7-.6-3.3-2.3-5.5-1.7-2.2-4.8-3.5-2.9-1.3-7.5-1.3-3.7 0-7.2 1.7t-5.7 5.3h-.3v-5.8h-11zM1150.7 764.2h-18.8q0-1.2.4-2.8.5-1.5 1.6-2.9t3-2.3q1.8-1 4.6-1 4.2 0 6.2 2.3 2.2 2.3 3 6.7zm-18.8 7.3h30.4q.3-4.8-.9-9.3-1.1-4.5-3.7-8-2.5-3.5-6.5-5.6-4-2-9.4-2-4.8 0-8.8 1.6-4 1.8-6.8 4.8-2.8 2.9-4.4 7-1.5 4-1.5 8.8 0 4.9 1.5 9 1.5 4 4.3 7 2.7 2.9 6.7 4.5t9 1.6q7.2 0 12.2-3.3 5-3.3 7.5-10.8h-10.2q-.5 2-3 3.7-2.6 1.7-6 1.7-5 0-7.6-2.5-2.6-2.5-2.8-8.2z" style="-inkscape-font-specification:'Helvetica Neue Bold'"/></g><path d="M810.9 38.3h197.6m681.5 0h200.9M1850.9 18.3l40 20-40 20" fill="none" stroke="#000" stroke-width="5"/><g style="line-height:125%" font-weight="700" font-size="81.5" font-family="Helvetica Neue" letter-spacing="0" word-spacing="0"><path d="M1092.9 58.2l13.3-42.1h-12l-7.7 28.5h-.1l-7.2-28.5h-11.3l-7 28.6h-.1L1053 16h-12.2l13.4 42h12l7.1-28.2h.2l7.5 28.3h11.9zM1111 16v42.2h11.7v-19q0-2.9.5-5.3.6-2.4 1.9-4.2 1.4-2 3.6-3t5.4-1l2.2.1 2 .3V15.3q-1.5-.4-2.6-.4-2.2 0-4.2.7-2 .6-3.9 1.8-1.8 1.2-3.2 2.9-1.3 1.6-2.2 3.6h-.1V16h-11zM1154.8 9.5V0h-11.6v9.5h11.6zm-11.6 6.6v42h11.6v-42h-11.6zM1178.6 16V3.5H1167v12.7h-7v7.7h7v24.8q0 3.2 1 5.2 1.1 2 3 3 1.8 1 4.2 1.4 2.4.4 5.1.4h3.5l3.3-.4v-9l-1.7.3h-2q-2.9 0-3.8-1-1-1-1-3.8v-21h8.5v-7.6h-8.5zM1204.5 9.5V0h-11.6v9.5h11.6zm-11.6 6.6v42h11.6v-42h-11.6zM1213.6 16v42.2h11.5V36q0-6.4 2.2-9.2 2-2.9 6.8-2.9 4.2 0 5.8 2.6 1.6 2.6 1.6 7.8v23.8h11.6v-26q0-3.8-.7-7-.7-3.3-2.4-5.5-1.7-2.3-4.7-3.5-3-1.3-7.6-1.3-3.7 0-7.2 1.7t-5.7 5.3h-.2v-5.8h-11zM1281.6 48.2q-2.7 0-4.5-1.1-1.8-1.1-3-3-1-1.7-1.5-4-.4-2.2-.4-4.5 0-2.4.5-4.5.6-2.2 1.7-3.8 1.2-1.7 3-2.7 1.8-1 4.2-1 2.8 0 4.7 1 1.9 1.1 3 3 1.2 1.7 1.7 4.1.5 2.3.5 4.9 0 2.3-.7 4.4-.6 2-1.8 3.7-1.2 1.6-3 2.6-2 1-4.4 1zm20.9 7.3V16h-11v5.6h-.2q-2.1-3.7-5.3-5.2-3.1-1.6-7.3-1.6-4.4 0-7.8 1.7-3.3 1.7-5.6 4.7-2.3 2.8-3.5 6.6-1.1 3.8-1.1 7.9 0 4.3 1 8.2 1 3.8 3.2 6.8 2.2 2.8 5.6 4.5 3.4 1.7 8.2 1.7 3.8 0 7.2-1.6 3.5-1.6 5.4-5h.2V56q0 4.5-2.2 7.4-2.2 3-7.1 3-3.1 0-5.5-1.4-2.4-1.2-3.2-4.5H1262q.3 3.6 2 6.2 1.8 2.6 4.4 4.2 2.7 1.6 5.9 2.4 3.2.8 6.3.8 7.3 0 11.6-2t6.6-4.8q2.3-2.8 3-6 .7-3.3.7-5.8zM1364.3 37q0 2.6-.5 5-.5 2.5-1.6 4.4-1.2 2-3.1 3-2 1.2-4.8 1.2-2.7 0-4.6-1.1-1.9-1.3-3.2-3.1-1.2-2-1.8-4.4-.5-2.5-.5-5t.4-4.9q.6-2.4 1.8-4.3 1.2-1.9 3.1-3 2-1.2 4.8-1.2 2.9 0 4.8 1.2 1.8 1.1 3 3 1.2 1.8 1.7 4.2.5 2.4.5 5zm.1 15.8v5.4h11V0H1364v21.2h-.2q-2-3.1-5.4-4.7-3.3-1.6-7-1.6-4.7 0-8.2 1.9-3.5 1.8-5.9 4.8-2.3 3-3.5 7-1.1 4-1.1 8.1 0 4.5 1.1 8.5 1.2 4.1 3.5 7.3 2.4 3 6 5 3.6 1.7 8.3 1.7 4.1 0 7.4-1.4 3.3-1.6 5.4-5h.1zM1396 9.5V0h-11.6v9.5h11.5zm-11.6 6.6v42h11.5v-42h-11.5zM1405 16v42.2h11.6v-19q0-2.9.6-5.3.5-2.4 1.9-4.2 1.3-2 3.5-3t5.4-1l2.2.1 2 .3V15.3q-1.4-.4-2.6-.4-2.2 0-4.2.7-2 .6-3.8 1.8-1.8 1.2-3.2 2.9-1.4 1.6-2.2 3.6h-.2V16h-11zM1463.9 32.6H1445q.1-1.2.5-2.8.5-1.5 1.6-3 1.1-1.3 3-2.2 1.8-1 4.6-1 4.2 0 6.2 2.3 2.2 2.3 3 6.7zm-18.9 7.3h30.4q.4-4.9-.8-9.3-1.1-4.5-3.7-8-2.5-3.5-6.5-5.6-4-2-9.4-2-4.8 0-8.8 1.6-4 1.7-6.8 4.7t-4.4 7q-1.5 4.1-1.5 8.9 0 4.8 1.4 9 1.6 4 4.4 7 2.7 2.9 6.7 4.5 4 1.5 9 1.5 7.2 0 12.2-3.2 5-3.3 7.5-10.9h-10.2q-.5 2-3 3.8-2.6 1.7-6.1 1.7-4.9 0-7.5-2.5-2.6-2.5-2.9-8.2zM1511 30.9h11.4q-.3-4-2-7t-4.4-5q-2.7-2-6.2-3t-7.2-1q-5.1 0-9.1 1.7t-6.8 4.8q-2.8 3-4.2 7.3-1.4 4.1-1.4 9 0 4.8 1.5 8.7 1.6 4 4.3 6.8 2.8 2.9 6.7 4.5 4 1.5 8.7 1.5 8.4 0 13.8-4.4t6.5-12.8h-11.1q-.6 4-2.9 6.3-2.2 2.3-6.3 2.3-2.7 0-4.6-1.2-1.9-1.2-3-3.1-1-2-1.6-4.3-.4-2.4-.4-4.7 0-2.3.4-4.7.5-2.5 1.7-4.4 1.2-2 3-3.3 2-1.3 4.7-1.3 7.4 0 8.6 7.3zM1543.7 16V3.5H1532v12.7h-7v7.7h7v24.8q0 3.2 1 5.2 1.1 2 3 3 1.8 1 4.2 1.4 2.4.4 5 .4h3.6l3.3-.4v-9l-1.8.3h-1.8q-3 0-4-1t-1-3.8v-21h8.6v-7.6h-8.5zM1569.6 9.5V0H1558v9.5h11.6zm-11.6 6.6v42h11.6v-42H1558zM1589 37.2q0-2.6.4-5 .5-2.5 1.7-4.3 1.2-2 3.1-3 2-1.3 5-1.3 2.9 0 4.8 1.3 2 1 3.2 3 1.2 1.8 1.7 4.3.5 2.4.5 5 0 2.5-.5 5-.5 2.3-1.7 4.2-1.2 2-3.2 3-2 1.2-4.9 1.2-3 0-4.9-1.1-2-1.2-3.1-3-1.2-2-1.7-4.4-.5-2.4-.5-5zm-11.6 0q0 5 1.5 9 1.6 4.2 4.4 7 2.9 3 6.9 4.5t9 1.5q4.9 0 8.9-1.5 4-1.6 7-4.4 2.8-3 4.3-7 1.6-4 1.6-9.1 0-5-1.6-9.2-1.5-4.1-4.4-7-2.8-3-7-4.5-4-1.6-8.9-1.6-5 0-9 1.6t-6.8 4.5q-2.8 2.9-4.4 7-1.5 4.1-1.5 9.2zM1628.3 16v42.2h11.6V36q0-6.4 2.1-9.2 2.1-2.9 6.9-2.9 4.1 0 5.7 2.6 1.7 2.6 1.7 7.8v23.8h11.5v-26q0-3.8-.7-7-.6-3.3-2.4-5.5-1.7-2.3-4.7-3.5-3-1.3-7.6-1.3-3.6 0-7.1 1.7-3.5 1.7-5.7 5.3h-.3v-5.8h-11z" style="-inkscape-font-specification:'Helvetica Neue Bold'"/></g><path d="M710.5 1495.3l-20 40-20-40M690.9 1538.3v-1380" fill="none" stroke="#000" stroke-width="5"/><g style="line-height:125%" font-weight="700" font-size="81.5" font-family="Helvetica Neue" letter-spacing="0" word-spacing="0"><path d="M7 783.5v34.4h11.5v-34.4h8v-7.8h-8v-2.5q0-2.6 1-3.6 1-1.2 3.4-1.2 2.2 0 4.2.3V760l-3-.1-3-.2q-7.2 0-10.7 3.6-3.5 3.6-3.5 9.2v3.2H0v7.8h7zM32 759.7v58.2h11.5v-58.2H31.9zM62.9 796.9q0-2.6.5-5 .5-2.5 1.6-4.3 1.2-2 3.2-3 2-1.3 4.9-1.3 2.9 0 4.9 1.3 2 1 3.1 3 1.3 1.8 1.7 4.3.5 2.4.5 5 0 2.5-.5 5-.4 2.3-1.7 4.2-1.1 2-3.1 3-2 1.2-5 1.2-2.9 0-4.8-1.1-2-1.2-3.2-3-1.1-2-1.6-4.4-.5-2.4-.5-5zm-11.6 0q0 5 1.6 9 1.5 4.2 4.4 7 2.8 3 6.8 4.5t9 1.5q5 0 9-1.5 4-1.6 6.9-4.4 2.8-3 4.4-7 1.5-4 1.5-9.1t-1.5-9.2q-1.6-4.1-4.4-7-2.9-3-7-4.5-4-1.6-9-1.6t-8.9 1.6q-4 1.6-6.8 4.5-2.9 2.9-4.4 7-1.6 4.1-1.6 9.2zM150.4 817.9l13.3-42.2h-11.9l-7.7 28.6h-.2l-7.2-28.6h-11.2l-7 28.7h-.2l-7.7-28.7H98.4l13.3 42.2h12l7.2-28.3h.1l7.5 28.3h12zM221.1 796.7q0 2.6-.5 5-.4 2.5-1.6 4.4-1.1 2-3 3-2 1.2-4.8 1.2-2.7 0-4.7-1.1-1.8-1.3-3.1-3.1-1.3-2-1.8-4.4-.6-2.5-.6-5t.5-4.9q.6-2.4 1.7-4.3 1.2-1.9 3.2-3 2-1.2 4.8-1.2t4.7 1.2q1.9 1.1 3 3 1.3 1.8 1.7 4.2.5 2.4.5 5zm.2 15.8v5.4h11v-58.2h-11.6v21.2h-.1q-2-3.1-5.4-4.7-3.4-1.6-7.1-1.6-4.6 0-8.2 1.9-3.5 1.8-5.8 4.8t-3.5 7q-1.2 4-1.2 8.1 0 4.4 1.2 8.5t3.5 7.3q2.3 3 6 5 3.5 1.7 8.2 1.7 4.2 0 7.5-1.4 3.3-1.6 5.3-5h.2zM252.8 769.2v-9.5h-11.6v9.5h11.6zm-11.6 6.5V818h11.6v-42.2h-11.6zM261.9 775.7V818h11.6v-19q0-2.9.5-5.3.6-2.4 2-4.2 1.3-2 3.5-3t5.4-1l2.2.1 2 .3V775q-1.5-.4-2.6-.4-2.2 0-4.2.7-2 .6-3.9 1.8-1.8 1.2-3.1 2.9-1.4 1.6-2.2 3.6h-.2v-7.9h-11zM320.7 792.3H302q0-1.2.5-2.8.5-1.5 1.5-3 1.2-1.3 3-2.2 1.8-1 4.6-1 4.3 0 6.3 2.3 2.1 2.3 3 6.7zm-18.8 7.3h30.4q.3-4.9-.8-9.3-1.2-4.5-3.8-8-2.5-3.5-6.5-5.6-4-2-9.4-2-4.8 0-8.8 1.6-3.9 1.7-6.7 4.7-2.9 3-4.4 7-1.6 4.1-1.6 8.9 0 4.8 1.5 9 1.5 4 4.3 7 2.8 2.9 6.8 4.5 4 1.5 9 1.5 7.1 0 12.2-3.2 5-3.3 7.5-10.9h-10.2q-.6 2-3.1 3.8-2.5 1.7-6 1.7-5 0-7.5-2.5-2.7-2.6-2.9-8.2zM368 790.6h11.2q-.2-4-2-7-1.6-3-4.4-5-2.7-2-6.2-3-3.4-1-7.2-1-5 0-9 1.7t-6.8 4.8q-2.8 3-4.3 7.3-1.4 4.1-1.4 9 0 4.8 1.6 8.7 1.5 4 4.3 6.8 2.8 2.9 6.7 4.5 4 1.5 8.7 1.5 8.4 0 13.8-4.4t6.5-12.8h-11.2q-.5 4-2.8 6.3-2.2 2.3-6.4 2.3-2.7 0-4.5-1.2-2-1.2-3-3.1-1.1-2-1.6-4.3-.5-2.4-.5-4.7 0-2.3.5-4.7.5-2.5 1.6-4.4 1.2-2 3.1-3.3 1.9-1.3 4.7-1.3 7.4 0 8.5 7.3zM400.5 775.7v-12.6H389v12.6h-7v7.8h7v24.8q0 3.2 1 5.2t2.9 3q1.9 1 4.2 1.4 2.5.4 5.1.4l3.6-.1q1.7 0 3.2-.3v-9l-1.7.3h-1.9q-3 0-3.9-1-1-1-1-3.8v-21h8.5v-7.7h-8.5zM426.4 769.2v-9.5h-11.6v9.5h11.6zm-11.6 6.5V818h11.6v-42.2h-11.6zM445.8 796.9q0-2.6.5-5 .5-2.5 1.6-4.3 1.2-2 3.2-3 2-1.3 4.9-1.3 3 0 4.9 1.3 2 1 3.1 3 1.3 1.8 1.8 4.3.4 2.4.4 5 0 2.5-.4 5-.5 2.3-1.8 4.2-1 2-3.1 3-2 1.2-5 1.2-2.9 0-4.8-1.1-2-1.2-3.2-3-1.1-2-1.6-4.4-.5-2.4-.5-5zm-11.6 0q0 5 1.6 9 1.5 4.2 4.4 7 2.8 3 6.8 4.5t9 1.5q5 0 9-1.5 4-1.6 6.9-4.4 2.8-3 4.4-7 1.5-4 1.5-9.1t-1.5-9.2q-1.6-4.1-4.4-7-2.9-3-7-4.5-4-1.6-9-1.6-4.9 0-8.9 1.6t-6.8 4.5q-2.9 2.9-4.4 7-1.6 4.1-1.6 9.2zM485.2 775.7V818h11.6v-22.1q0-6.4 2-9.2 2.2-2.9 7-2.9 4 0 5.7 2.6 1.6 2.6 1.6 7.8v23.8h11.6v-26q0-3.8-.7-7-.7-3.3-2.4-5.5-1.7-2.3-4.7-3.5-3-1.3-7.6-1.3-3.7 0-7.2 1.7-3.5 1.6-5.7 5.3h-.2v-5.9h-11z" style="-inkscape-font-specification:'Helvetica Neue Bold'"/></g><path d="M690.9 798.3h-120" fill="none" stroke="#000" stroke-width="5"/></svg>