<svg xmlns="http://www.w3.org/2000/svg" height="1076.8" width="2280" viewBox="0 0 2137.5 1009.5"><path fill="currentColor" stroke="currentColor" stroke-width="3" stroke-linecap="round" stroke-linejoin="round" d="M1482.5 232.6h59.3v60h-59.3z"/><path fill="none" stroke="currentColor" stroke-width="10" stroke-linecap="round" stroke-linejoin="round" d="M468.1 188.2h1120v600h-1120z"/><path fill="#fff" stroke="currentColor" stroke-width="7" stroke-linecap="round" stroke-linejoin="round" d="M1478.2 229h70v70h-70z"/><path fill="currentColor" d="M1526.6 242.1l7.1 7-35.3 35.4-7.1-7z"/><path fill="currentColor" d="M1498.4 242.1l35.3 35.4-7 7-35.4-35.3z"/><path fill="none" stroke="currentColor" stroke-width="8.1" stroke-linecap="round" stroke-linejoin="round" d="M1290.5 648.6h257.1v99.1h-257.1z"/><path fill="currentColor" stroke="currentColor" stroke-width="8.1" stroke-linecap="round" stroke-linejoin="round" d="M987.4 648.6h257.1v99.1H987.4z"/><g fill="#fff"><path d="M1060 694.1q0-2.6.6-5 .7-2.5 2-4.4 1.2-2 3.3-3 2-1.2 5-1.2t5 1.1q2 1.1 3.3 3.1 1.3 1.9 1.9 4.3.6 2.5.6 5.1 0 2.5-.6 5-.6 2.2-1.9 4.1-1.2 2-3.3 3.1-2 1.1-5 1.1t-5-1.1q-2-1.2-3.4-3-1.2-2-1.9-4.3-.5-2.4-.5-4.9zm-8.7 0q0 4.4 1.4 8.1 1.3 3.8 3.8 6.6 2.5 2.7 6.2 4.4 3.6 1.5 8.2 1.5t8.2-1.5q3.7-1.7 6.2-4.4 2.5-2.8 3.8-6.6 1.3-3.7 1.3-8 0-4.5-1.3-8.3-1.3-3.9-3.8-6.7-2.5-2.9-6.2-4.5-3.6-1.6-8.2-1.6t-8.2 1.6q-3.7 1.6-6.2 4.5-2.5 2.8-3.8 6.7-1.4 3.8-1.4 8.2zM1096.1 674v39.8h8V704l3-3 8 13h9.5l-12-18.3 10.8-10.6h-9.4l-10 10.4V674h-7.9zM1127 693.9q.2-2.8 1.5-4.6 1.2-1.9 3-3 2-1.1 4.3-1.5 2.4-.5 4.8-.5 2.2 0 4.4.3t4 1.2q1.9.8 3 2.5 1.2 1.5 1.2 4.1v15q0 2 .3 3.7.2 1.8.7 2.7h-8l-.4-1.3-.1-1.5q-2 2-4.5 2.8-2.6.7-5.2.7-2 0-3.9-.5-1.8-.5-3-1.5-1.4-1-2.2-2.7-.7-1.6-.7-3.8 0-2.5.8-4 .9-1.7 2.2-2.6 1.4-1 3.2-1.4 1.7-.5 3.5-.8l3.5-.4 3-.5q1.4-.4 2.2-1 .8-.6.7-1.9 0-1.2-.4-2-.4-.7-1.1-1.1-.7-.5-1.6-.6l-2-.2q-2.3 0-3.7 1-1.3 1-1.5 3.4h-8zm18.3 5.8q-.5.5-1.3.8l-1.6.3-1.8.3-1.8.3-1.8.4q-.9.3-1.5.8t-1 1.2q-.4.7-.4 1.8 0 1 .4 1.8.4.7 1 1.2.7.4 1.6.5l1.8.2q2.4 0 3.6-.8 1.3-.7 2-1.8.5-1.1.7-2.2l.1-1.8v-3zM1173.5 717.4l12-32.4h-8.2l-6.3 19.7-6.6-19.7h-8.4l10 27q.4.9.4 1.8 0 1.3-.8 2.4-.7 1-2.3 1.2h-2.3l-2.3-.3v6.5l2.4.2 2.5.1q4 0 6.3-1.5t3.6-5z"/></g><g fill="currentColor"><path d="M1358.4 689.4h8.4q-.3-3.4-1.8-6-1.6-2.8-3.9-4.5-2.3-1.9-5.2-2.8-3-1-6.2-1-4.6 0-8.3 1.6-3.6 1.7-6 4.5-2.6 2.8-4 6.7-1.3 3.8-1.3 8.2 0 4.4 1.4 8.2 1.3 3.7 3.8 6.5t6.1 4.4q3.7 1.5 8.3 1.5 3.7 0 6.7-1 3-1.2 5.4-3.3 2.3-2.1 3.7-5.1 1.3-3 1.7-6.8h-8.5q-.5 4-2.8 6.5-2.2 2.4-6.2 2.4-3 0-5-1-2-1.2-3.4-3.1-1.2-2-1.9-4.3-.5-2.4-.5-4.9 0-2.6.5-5 .7-2.5 2-4.4 1.2-2 3.3-3 2-1.2 5-1.2 1.6 0 3 .5 1.6.5 2.7 1.5 1.2 1 2 2.2.8 1.2 1 2.7zM1372 696q.1-2.9 1.3-4.7 1.2-1.9 3.1-3 2-1 4.3-1.5 2.4-.5 4.8-.5 2.1 0 4.4.3 2.2.3 4 1.2 1.9.9 3 2.5 1.2 1.5 1.2 4.2v15q0 1.9.2 3.7.3 1.8.8 2.6h-8l-.4-1.3-.2-1.4q-1.9 2-4.4 2.7-2.6.8-5.3.8-2 0-3.8-.5-1.8-.5-3.1-1.6-1.4-1-2.1-2.7-.8-1.6-.8-3.8 0-2.5.9-4 .9-1.6 2.2-2.6 1.4-1 3.1-1.4l3.6-.8 3.5-.4 3-.5q1.4-.3 2.2-1 .8-.6.7-1.8 0-1.3-.4-2-.4-.8-1.2-1.2-.6-.5-1.6-.6l-2-.1q-2.3 0-3.6 1-1.3 1-1.6 3.3h-7.9zm18.2 5.8q-.5.4-1.3.7l-1.6.4-1.8.2-1.9.3-1.8.5q-.8.2-1.5.7-.6.5-1 1.2t-.4 1.9q0 1 .4 1.7.4.8 1.1 1.2.7.4 1.6.6l1.8.1q2.3 0 3.6-.7 1.3-.8 2-1.9.5-1.1.6-2.2l.2-1.8v-3zM1404.1 687v28.8h8v-15q0-4.4 1.4-6.3 1.4-2 4.7-2 2.8 0 4 1.8 1 1.7 1 5.3v16.2h8v-17.7q0-2.6-.6-4.8-.4-2.2-1.6-3.7-1.1-1.6-3.2-2.4-2-1-5.2-1-2.5 0-4.9 1.2-2.4 1.2-3.9 3.7h-.1v-4h-7.6zM1456.8 697.2h7.7q-.1-2.8-1.3-4.8t-3-3.4q-1.9-1.4-4.3-2-2.3-.7-4.9-.7-3.5 0-6.2 1.1-2.8 1.2-4.6 3.3-2 2-3 5-.9 2.8-.9 6.2 0 3.2 1 6 1.1 2.6 3 4.5 2 2 4.6 3.1 2.7 1 6 1 5.7 0 9.4-3 3.6-3 4.4-8.7h-7.6q-.4 2.7-2 4.3-1.5 1.6-4.3 1.6-1.8 0-3.1-.9-1.3-.8-2-2-.8-1.4-1.1-3-.4-1.7-.4-3.2 0-1.6.4-3.2.3-1.7 1-3 .9-1.4 2.2-2.3 1.3-.9 3.2-.9 5 0 5.8 5zM1488.5 698.4h-13l.4-2 1-2q.9-.9 2-1.5 1.4-.7 3.3-.7 2.9 0 4.2 1.6 1.5 1.5 2 4.6zm-13 5h20.9q.2-3.4-.6-6.4-.8-3.1-2.6-5.5-1.7-2.4-4.4-3.8t-6.4-1.4q-3.3 0-6 1.1-2.7 1.2-4.7 3.3-2 2-3 4.8-1 2.7-1 6t1 6.1q1 2.8 3 4.8 1.8 2 4.6 3.1 2.7 1 6 1 5 0 8.4-2.2 3.5-2.2 5.2-7.4h-7q-.4 1.4-2.1 2.6-1.7 1.2-4.1 1.2-3.4 0-5.2-1.8-1.7-1.7-2-5.5zM1501.3 676v39.8h7.9v-39.7h-8z"/></g><g fill="currentColor"><path d="M625.3 400.7l7.3-20h.1l7.2 20h-14.6zm4.3-25.3l-16.8 43h5.9l4.8-13h18.2l4.7 13h6.3l-16.8-43h-6.3zM655.9 387.3v31.1h5.1v-13.8q0-3 .6-5.3.6-2.4 2-4 1.3-1.6 3.4-2.5 2.2-.8 5.3-.8v-5.4q-4.2-.1-6.9 1.7t-4.6 5.6v-6.6h-4.9zM696.8 399.9h-17.9q.1-1.8.8-3.4.7-1.6 1.8-2.8 1.1-1.2 2.7-1.9t3.6-.7q2 0 3.5.7 1.6.7 2.8 1.9 1.2 1.1 1.8 2.8.8 1.6.9 3.4zm5 8.7h-5.1q-.7 3-2.8 4.5-2 1.5-5.3 1.5-2.5 0-4.4-.8-1.9-.9-3-2.2-1.3-1.5-1.8-3.3-.5-1.9-.5-3.9h23.3q.1-2.8-.5-6-.6-3-2.3-5.7-1.6-2.7-4.4-4.4-2.7-1.7-6.9-1.7-3.2 0-5.9 1.2-2.6 1.2-4.6 3.4-2 2.1-3 5-1.1 3-1.1 6.6.1 3.5 1 6.5 1 3 2.8 5.2 2 2.2 4.6 3.4 2.8 1.2 6.5 1.2 5.3 0 8.8-2.7 3.5-2.6 4.5-7.8zM736.5 422.6l-1.8 3.8q-.9 1.6-2 2.5-1 1-2.3 1.5-1.3.5-3 .5l-1.8-.1-1.7-.5v-4.7l1.5.5q.9.3 1.5.3 1.6 0 2.6-.8 1-.7 1.6-2.1l2.1-5.3-12.3-30.9h5.8l9 25.5h.2l8.7-25.5h5.4l-13.5 35.3zM758 402.9q0-2.8.8-5t2.1-3.7q1.3-1.5 3-2.3 1.9-.8 3.9-.8t3.7.8q1.8.8 3.1 2.3 1.4 1.5 2 3.7.9 2.2.9 5t-.8 5q-.7 2.2-2 3.7-1.4 1.5-3.2 2.2-1.7.8-3.7.8t-3.8-.8q-1.8-.7-3-2.2-1.4-1.5-2.2-3.7-.7-2.2-.7-5zm-5.3 0q0 3.4 1 6.4.9 3 2.8 5.1 2 2.2 4.8 3.5 2.8 1.2 6.5 1.2t6.5-1.2q2.8-1.3 4.7-3.5 2-2.2 3-5.1.9-3 .9-6.4 0-3.4-1-6.4-1-3-2.9-5.2t-4.7-3.5q-2.8-1.2-6.5-1.2t-6.5 1.2q-2.9 1.3-4.8 3.5t-2.9 5.2q-1 3-1 6.4zM814.6 418.4v-31h-5.2v17.5q0 2-.6 3.9-.5 1.7-1.6 3-1.2 1.4-3 2.1-1.6.7-4 .7-3 0-4.6-1.7-1.7-1.6-1.7-4.5v-21h-5.1v20.4q0 2.5.5 4.6.5 2 1.8 3.6 1.2 1.5 3.3 2.3 2 .8 5.1.8 3.4 0 6-1.3 2.5-1.4 4.1-4.3h.1v5h4.9zM842.1 408.6H837q.1 2.9 1.2 5 1 2 2.9 3.2 1.8 1.2 4.1 1.7 2.4.6 5 .6 2.3 0 4.7-.5 2.4-.4 4.3-1.6 1.9-1.1 3-3 1.2-1.8 1.2-4.7 0-2.2-.9-3.7-.8-1.5-2.3-2.5-1.4-1-3.2-1.6-1.8-.6-3.7-1l-3.7-.8q-1.8-.4-3.2-1-1.5-.6-2.4-1.4-1-1-1-2.2 0-1.2.7-2 .6-.7 1.5-1.2 1-.4 2.2-.6l2.3-.2q1.3 0 2.5.3 1.2.2 2.3.8 1 .6 1.6 1.7.7 1 .8 2.4h5.1q-.1-2.8-1.2-4.7-1-1.9-2.7-3-1.7-1.1-4-1.5-2.2-.5-4.8-.5-2 0-4.2.5-2 .5-3.7 1.6-1.6 1-2.7 2.7-1 1.7-1 4 0 3 1.5 4.7 1.5 1.7 3.7 2.7 2.3.9 5 1.4 2.6.5 4.8 1.2 2.3.6 3.8 1.6t1.5 3q0 1.4-.7 2.4-.7.9-1.9 1.4-1 .5-2.4.6l-2.5.2q-1.6 0-3-.3-1.5-.3-2.7-1-1.2-.7-1.9-1.8-.7-1.2-.8-2.9zM894.7 418.4v-31h-5.1v17.5q0 2-.6 3.9-.5 1.7-1.7 3-1.1 1.4-2.9 2.1-1.7.7-4 .7-3 0-4.6-1.7-1.7-1.6-1.7-4.5v-21H869v20.4q0 2.5.4 4.6.6 2 1.8 3.6 1.3 1.5 3.4 2.3 2 .8 5 .8 3.5 0 6-1.3 2.6-1.4 4.2-4.3h.1v5h4.8zM902.3 387.3v31.1h5.1v-13.8q0-3 .6-5.3.6-2.4 2-4 1.3-1.6 3.4-2.5 2.2-.8 5.3-.8v-5.4q-4.2-.1-7 1.7-2.6 1.8-4.5 5.6h-.1v-6.6h-4.8zM943.2 399.9h-17.9q.1-1.8.8-3.4.6-1.6 1.8-2.8 1.1-1.2 2.7-1.9t3.6-.7q2 0 3.5.7 1.6.7 2.8 1.9 1.2 1.1 1.8 2.8.8 1.6.9 3.4zm5 8.7H943q-.7 3-2.8 4.5-2 1.5-5.3 1.5-2.5 0-4.4-.8-1.9-.9-3-2.2-1.3-1.5-1.8-3.3-.6-1.9-.5-3.9h23.3q.1-2.8-.6-6-.6-3-2.2-5.7-1.7-2.7-4.4-4.4-2.7-1.7-6.9-1.7-3.2 0-5.9 1.2-2.6 1.2-4.6 3.4-2 2.1-3 5-1.1 3-1.1 6.6.1 3.5 1 6.5 1 3 2.8 5.2 1.9 2.2 4.6 3.4 2.8 1.2 6.5 1.2 5.3 0 8.8-2.7 3.5-2.6 4.5-7.8zM982.9 422.6l-1.8 3.8q-.9 1.6-2 2.5-1 1-2.3 1.5-1.3.5-3 .5l-1.8-.1-1.7-.5v-4.7l1.5.5q.9.3 1.5.3 1.6 0 2.6-.8 1-.7 1.6-2.1l2.1-5.3-12.3-30.9h5.7l9.1 25.5h.2l8.7-25.5h5.4l-13.5 35.3zM1004.5 402.9q0-2.8.7-5 .8-2.2 2.1-3.7t3-2.3q1.9-.8 3.9-.8t3.7.8q1.8.8 3.1 2.3 1.3 1.5 2 3.7.8 2.2.8 5t-.7 5q-.8 2.2-2 3.7-1.4 1.5-3.2 2.2-1.8.8-3.7.8-2 0-3.8-.8-1.8-.7-3.1-2.2-1.3-1.5-2.1-3.7-.7-2.2-.7-5zm-5.4 0q0 3.4 1 6.4.9 3 2.8 5.1 2 2.2 4.8 3.5 2.8 1.2 6.5 1.2t6.5-1.2q2.8-1.3 4.7-3.5 2-2.2 2.9-5.1 1-3 1-6.4 0-3.4-1-6.4-1-3-2.9-5.2-2-2.2-4.7-3.5-2.8-1.2-6.5-1.2t-6.5 1.2q-2.9 1.3-4.8 3.5-2 2.2-2.9 5.2-1 3-1 6.4zM1061 418.4v-31h-5.2v17.5q0 2-.6 3.9-.5 1.7-1.7 3-1.1 1.4-2.9 2.1-1.6.7-4 .7-3 0-4.6-1.7-1.7-1.6-1.7-4.5v-21h-5.1v20.4q0 2.5.5 4.6.5 2 1.8 3.6 1.2 1.5 3.3 2.3 2 .8 5 .8 3.5 0 6-1.3 2.6-1.4 4.2-4.3h.1v5h4.8zM1116.2 418.4l10-31h-5.4l-7 25.4-6.6-25.5h-5.6l-6.2 25.5h-.2l-7-25.5h-5.7l10 31.1h5.6l6.2-24.7h.2l6.3 24.7h5.4zM1158.5 418.3q-1.3.8-3.6.8-2 0-3.2-1.1-1.2-1.1-1.2-3.7-2 2.6-4.9 3.7-2.8 1-6 1-2.1 0-4-.4-2-.5-3.3-1.5-1.4-1-2.2-2.7-.8-1.6-.8-4 0-2.6.9-4.3.9-1.7 2.3-2.7 1.5-1.1 3.4-1.7l4-.9 3.9-.6q2-.2 3.4-.6 1.4-.4 2.3-1.1.8-.8.8-2.2 0-1.7-.7-2.7-.6-1-1.6-1.6-1-.5-2.2-.7l-2.4-.2q-3.3 0-5.4 1.3-2.2 1.2-2.4 4.6h-5.1q.1-2.9 1.2-4.9 1-2 2.9-3.2 1.8-1.2 4-1.8 2.4-.5 5-.5 2.2 0 4.2.3 2.1.3 3.8 1.2 1.7 1 2.7 2.6 1 1.7 1 4.4v16q0 1.8.2 2.7.3.8 1.5.8.6 0 1.5-.3v4zm-8.3-16q-1 .8-2.5 1.1l-3.3.6-3.4.5q-1.8.2-3.2.8-1.3.6-2.2 1.7-.9 1.1-.9 3 0 1.3.5 2.2.5.9 1.3 1.4.9.5 2 .8 1 .2 2.2.2 2.6 0 4.4-.6 1.8-.8 3-1.8 1-1 1.6-2.3.5-1.2.5-2.3v-5.3zM1163.3 387.3v31.1h5.1v-17.6q0-2 .6-3.8.6-1.8 1.7-3.1 1.2-1.4 2.8-2 1.8-.8 4.1-.8 3 0 4.7 1.7 1.6 1.7 1.6 4.5v21.1h5.2V398q0-2.6-.6-4.6-.5-2.1-1.7-3.6-1.3-1.5-3.3-2.4-2-.8-5.1-.8-7 0-10.2 5.6v-4.9h-4.9zM1204 387.3V378h-5.2v9.3h-5.3v4.5h5.3v19.8q0 2.2.4 3.5.4 1.3 1.3 2 .9.8 2.3 1 1.4.3 3.4.3h4V414h-4.4l-1.2-.5q-.4-.3-.6-.8v-20.8h6.1v-4.5h-6.2zM1239.6 387.3V378h-5v9.3h-5.4v4.5h5.3v19.8q0 2.2.5 3.5.4 1.3 1.2 2 1 .8 2.3 1 1.4.3 3.4.3h4V414h-4.4q-.7-.2-1.1-.5-.5-.3-.6-.8-.2-.6-.2-1.5v-19.3h6.2v-4.5h-6.2zM1255.3 402.9q0-2.8.7-5 .8-2.2 2.2-3.7 1.3-1.5 3-2.3 1.8-.8 3.8-.8 2 0 3.7.8 1.9.8 3.2 2.3 1.3 1.5 2 3.7.8 2.2.8 5t-.8 5q-.7 2.2-2 3.7t-3.2 2.2q-1.7.8-3.7.8t-3.8-.8q-1.7-.7-3-2.2-1.4-1.5-2.2-3.7-.7-2.2-.7-5zm-5.4 0q0 3.4 1 6.4 1 3 2.9 5.1 1.9 2.2 4.7 3.5 2.8 1.2 6.5 1.2t6.5-1.2q2.8-1.3 4.8-3.5 1.9-2.2 2.9-5.1 1-3 1-6.4 0-3.4-1-6.4-1-3-3-5.2-1.9-2.2-4.7-3.5-2.8-1.2-6.5-1.2t-6.5 1.2q-2.8 1.3-4.7 3.5-2 2.2-3 5.2-.9 3-.9 6.4zM622.5 457v-6.3h-5.1v6.2h5zm-5.1 5.5v31.2h5v-31.2h-5zM630.5 462.5v31.2h5V476q0-2.1.6-3.9.6-1.8 1.8-3.1 1.1-1.3 2.8-2 1.7-.8 4-.8 3 0 4.7 1.7 1.7 1.7 1.7 4.6v21h5.1v-20.4q0-2.5-.5-4.6-.5-2-1.8-3.6-1.2-1.5-3.3-2.3-2-.9-5.1-.9-7 0-10.1 5.7h-.1v-5h-4.8zM685 472.5h5.4q-.3-2.7-1.5-4.7-1.1-2-3-3.4-1.7-1.3-4-2-2.3-.6-5-.6-3.6 0-6.4 1.3-2.8 1.3-4.6 3.6-1.8 2.2-2.7 5.3-1 3-1 6.5t1 6.4q1 3 2.7 5 1.9 2.1 4.6 3.3 2.8 1.1 6.3 1.1 6 0 9.4-3.1 3.5-3.1 4.4-9h-5.3q-.5 3.7-2.6 5.7t-6 2q-2.3 0-4-1-1.8-1-3-2.5-1-1.7-1.5-3.7t-.5-4.2q0-2.4.5-4.5.4-2.3 1.5-4 1.2-1.6 3-2.6 1.9-1 4.7-1 3.2 0 5.1 1.6 2 1.6 2.6 4.5zM696.6 450.7v43h5.1v-43h-5.1zM735.4 493.7v-31.2h-5v17.6q0 2.1-.7 4-.5 1.7-1.7 3-1.1 1.3-2.9 2-1.6.8-4 .8-3 0-4.6-1.7-1.7-1.7-1.7-4.6v-21h-5.1V483q0 2.5.5 4.6.5 2 1.8 3.6 1.2 1.5 3.3 2.3 2 .8 5 .8 3.5 0 6-1.3 2.6-1.4 4.2-4.3h.1v5h4.8zM747 478.4q0-2.3.4-4.5.5-2.2 1.6-3.8 1-1.7 2.8-2.7 1.9-1 4.4-1 2.7 0 4.6 1 1.8 1 3 2.5 1.2 1.7 1.7 3.8.6 2.1.6 4.4 0 2.2-.6 4.3-.5 2.1-1.6 3.8-1.2 1.6-3 2.6t-4.4 1q-2.4 0-4.3-.9-1.8-1-3-2.6-1.1-1.6-1.7-3.7-.6-2-.6-4.2zm24 15.3v-43h-5.1v16h-.1q-.9-1.4-2.2-2.3-1.2-1-2.5-1.5-1.4-.6-2.8-.8-1.4-.3-2.6-.3-3.6 0-6.3 1.3-2.6 1.3-4.4 3.5-1.8 2.2-2.7 5.1-.8 3-.8 6.3t.9 6.3q.9 3 2.6 5.1 1.9 2.3 4.5 3.6 2.7 1.3 6.3 1.3 3.3 0 6-1.1 2.7-1.2 4-3.8v4.3h5.2zM800.4 475.1h-17.9q.2-1.8.8-3.4.7-1.6 1.8-2.8 1.2-1.2 2.7-1.9 1.7-.7 3.6-.7 2 0 3.5.7 1.7.7 2.8 2 1.2 1 1.9 2.7.7 1.6.8 3.4zm5 8.7h-5.1q-.7 3-2.8 4.6-2 1.5-5.3 1.5-2.5 0-4.4-.9-1.8-.8-3-2.2-1.2-1.5-1.8-3.3-.5-1.8-.5-3.9h23.3q.1-2.8-.5-6-.6-3-2.3-5.7-1.6-2.7-4.4-4.3-2.7-1.8-6.9-1.8-3.2 0-5.9 1.2-2.6 1.2-4.6 3.4-2 2.2-3 5.1-1 3-1 6.5 0 3.6 1 6.6.9 3 2.8 5.1 1.8 2.2 4.5 3.4 2.8 1.2 6.5 1.2 5.3 0 8.8-2.6 3.5-2.7 4.5-8zM855.4 493.5q-1.3.8-3.7.8-2 0-3.2-1-1.1-1.2-1.1-3.7-2.1 2.5-5 3.6-2.7 1.1-6 1.1-2 0-4-.5-1.9-.4-3.3-1.5-1.3-1-2.2-2.6-.8-1.7-.8-4 0-2.7 1-4.4.8-1.7 2.3-2.7 1.5-1 3.4-1.6 1.9-.6 3.9-1l4-.5 3.3-.6q1.5-.4 2.3-1.2.8-.7.8-2.2 0-1.7-.6-2.7-.6-1-1.6-1.6-1-.5-2.3-.7l-2.4-.2q-3.2 0-5.4 1.3-2.2 1.2-2.3 4.6h-5.2q.2-2.9 1.2-4.8 1.1-2 3-3.2 1.7-1.3 4-1.8 2.4-.6 5-.6 2.1 0 4.2.3 2 .3 3.8 1.3 1.6.9 2.7 2.6 1 1.7 1 4.4v16q0 1.8.2 2.6.2.9 1.4.9.7 0 1.6-.3v4zm-8.3-16q-1 .8-2.5 1.2l-3.4.5-3.4.5q-1.7.2-3.1.8-1.4.6-2.3 1.8-.8 1-.8 3 0 1.3.4 2.2.6.8 1.4 1.3.8.6 1.9.8 1 .3 2.3.3 2.5 0 4.3-.7 1.8-.7 3-1.7 1.1-1.1 1.6-2.3.6-1.3.6-2.4v-5.2zM880.6 478.4q0-2.3.4-4.5.5-2.2 1.6-3.8 1.1-1.7 2.9-2.7 1.8-1 4.4-1 2.6 0 4.5 1t3 2.5q1.2 1.7 1.8 3.8.5 2.1.5 4.4 0 2.2-.5 4.3-.5 2.1-1.7 3.8-1.1 1.6-3 2.6-1.7 1-4.3 1-2.5 0-4.3-.9-1.8-1-3-2.6t-1.8-3.7q-.5-2-.5-4.2zm24 15.3v-43h-5v16h-.2q-.8-1.4-2.1-2.3-1.2-1-2.6-1.5-1.4-.6-2.8-.8-1.3-.3-2.5-.3-3.6 0-6.3 1.3-2.7 1.3-4.5 3.5-1.7 2.2-2.6 5.1-.8 3-.8 6.3t.9 6.3q.9 3 2.6 5.1 1.8 2.3 4.5 3.6 2.7 1.3 6.3 1.3 3.2 0 6-1.1 2.6-1.2 4-3.8v4.3h5.1zM917.9 457v-6.3h-5.1v6.2h5zm-5.1 5.5v31.2h5v-31.2h-5zM953.4 493.5q-1.3.8-3.6.8-2 0-3.2-1-1.2-1.2-1.2-3.7-2 2.5-5 3.6-2.7 1.1-6 1.1-2 0-4-.5-1.8-.4-3.2-1.5-1.4-1-2.2-2.6-.8-1.7-.8-4 0-2.7.9-4.4.9-1.7 2.3-2.7 1.5-1 3.4-1.6l4-1 3.9-.5 3.3-.6q1.5-.4 2.3-1.2.9-.7.9-2.2 0-1.7-.7-2.7-.6-1-1.6-1.6-1-.5-2.2-.7l-2.4-.2q-3.3 0-5.5 1.3-2.1 1.2-2.3 4.6h-5.1q.1-2.9 1.2-4.8 1-2 2.9-3.2 1.8-1.3 4-1.8 2.4-.6 5-.6 2.2 0 4.2.3 2.1.3 3.8 1.3 1.7.9 2.7 2.6 1 1.7 1 4.4v16q0 1.8.2 2.6.3.9 1.5.9.6 0 1.5-.3v4zm-8.3-16q-1 .8-2.5 1.2l-3.3.5-3.5.5q-1.7.2-3 .8-1.5.6-2.4 1.8-.8 1-.8 3 0 1.3.5 2.2.5.8 1.3 1.3.8.6 2 .8 1 .3 2.2.3 2.5 0 4.3-.7 1.8-.7 3-1.7 1.1-1.1 1.7-2.3.5-1.3.5-2.4v-5.2zM958.5 450.7v43h5.1v-43h-5.1zM975.3 478.1q0-2.8.7-5 .8-2.2 2.1-3.7 1.4-1.5 3.1-2.3 1.8-.8 3.8-.8 2 0 3.7.8 1.8.8 3.2 2.3 1.3 1.5 2 3.7.8 2.2.8 5 0 2.9-.8 5-.7 2.2-2 3.8-1.4 1.4-3.2 2.2-1.7.8-3.7.8t-3.8-.8q-1.7-.8-3-2.2-1.4-1.6-2.2-3.7-.7-2.2-.7-5zm-5.4 0q0 3.5 1 6.4 1 3 2.8 5.2 2 2.1 4.8 3.4 2.8 1.2 6.5 1.2t6.5-1.2q2.8-1.3 4.8-3.4 1.9-2.2 2.8-5.2 1-3 1-6.4 0-3.4-1-6.4-1-3-2.8-5.1-2-2.3-4.8-3.5-2.8-1.3-6.5-1.3t-6.5 1.3q-2.8 1.2-4.8 3.5-1.9 2.1-2.8 5.1-1 3-1 6.4zM1032.9 491v-28.5h-4.8v4.5h-.1q-1.4-2.6-3.9-3.9-2.4-1.3-5.4-1.3-4 0-6.8 1.6-2.7 1.5-4.4 3.9-1.7 2.3-2.4 5.3-.8 2.9-.8 5.6 0 3.2.9 6.1.9 2.8 2.6 5 1.8 2.1 4.4 3.4 2.6 1.2 6 1.2 3 0 5.7-1.3 2.7-1.4 4-4.2h.2v2q0 2.6-.6 4.8-.5 2.1-1.6 3.6-1.2 1.6-2.9 2.4-1.7 1-4.3 1-1.2 0-2.6-.4-1.4-.2-2.6-.8-1.2-.6-2-1.6t-.8-2.3h-5.2q.2 2.5 1.4 4.3 1.2 1.7 3 2.8 1.8 1 4 1.5 2.4.5 4.5.5 7.5 0 11-3.8t3.5-11.4zm-14.4-1.5q-2.5 0-4.2-1-1.7-1.1-2.7-2.8-1-1.7-1.4-3.8-.4-2.2-.4-4.3 0-2.2.4-4.2.6-2 1.7-3.6t2.8-2.5q1.8-1 4.3-1 2.4 0 4 1 1.7 1 2.8 2.6 1 1.5 1.5 3.5t.5 4q0 2.2-.5 4.4t-1.6 3.9q-1 1.7-2.9 2.8-1.7 1-4.3 1zM1062.6 457v-6.3h-5.1v6.2h5zm-5.1 5.5v31.2h5v-31.2h-5zM1070.6 462.5v31.2h5V476q0-2.1.6-3.9.6-1.8 1.8-3.1 1.1-1.3 2.8-2 1.7-.8 4-.8 3 0 4.7 1.7 1.7 1.7 1.7 4.6v21h5.1v-20.4q0-2.5-.5-4.6-.5-2-1.8-3.6-1.2-1.5-3.3-2.3-2-.9-5.1-.9-7 0-10.1 5.7h-.1v-5h-4.8zM1133 497.8l-1.8 3.9q-.9 1.5-2 2.5-1 1-2.3 1.4-1.3.5-3 .5l-1.8-.1q-.9-.1-1.7-.4v-4.7l1.5.5 1.5.2q1.6 0 2.6-.8 1-.7 1.6-2l2.1-5.3-12.3-31h5.8l9 25.5h.2l8.7-25.5h5.4l-13.5 35.3zM1154.6 478.1q0-2.8.7-5 .8-2.2 2.1-3.7t3-2.3q1.9-.8 3.9-.8t3.7.8q1.8.8 3.1 2.3 1.4 1.5 2 3.7.9 2.2.9 5 0 2.9-.8 5-.7 2.2-2 3.8-1.4 1.4-3.2 2.2-1.7.8-3.7.8t-3.8-.8q-1.8-.8-3-2.2-1.4-1.6-2.2-3.7-.7-2.2-.7-5zm-5.4 0q0 3.5 1 6.4.9 3 2.8 5.2 2 2.1 4.8 3.4 2.8 1.2 6.5 1.2t6.5-1.2q2.8-1.3 4.7-3.4 2-2.2 3-5.2.9-3 .9-6.4 0-3.4-1-6.4-1-3-2.9-5.1-1.9-2.3-4.7-3.5-2.8-1.3-6.5-1.3t-6.5 1.3q-2.9 1.2-4.8 3.5-2 2.1-2.9 5.1-1 3-1 6.4zM1211 493.7v-31.2h-5v17.6q0 2.1-.7 4-.5 1.7-1.7 3-1.1 1.3-2.8 2-1.7.8-4 .8-3 0-4.7-1.7-1.7-1.7-1.7-4.6v-21h-5.1V483q0 2.5.5 4.6.5 2 1.8 3.6 1.2 1.5 3.3 2.3 2 .8 5.1.8 3.4 0 6-1.3 2.5-1.4 4.1-4.3h.1v5h4.8zM1218.6 462.5v31.2h5.1v-13.9q0-3 .6-5.3t2-4q1.3-1.6 3.4-2.4 2.2-.9 5.3-.9v-5.4q-4.2-.1-6.9 1.7t-4.6 5.6v-6.6h-4.9zM1255.8 462.5v43h5v-16h.2q.8 1.4 2 2.3 1.3 1 2.7 1.5l2.8.8 2.6.2q3.5 0 6.2-1.3 2.7-1.2 4.4-3.4 1.8-2.2 2.7-5.2.9-3 .9-6.2 0-3.3-1-6.3-.8-3-2.7-5.2-1.7-2.2-4.4-3.6-2.7-1.3-6.3-1.3-3.2 0-6 1.2-2.6 1.2-3.9 3.7h-.1v-4.2h-5.1zm24 15.3q0 2.3-.4 4.5-.5 2.1-1.6 3.8-1 1.7-2.9 2.7-1.7 1-4.4 1-2.6 0-4.5-.9-1.9-1-3-2.7-1.2-1.6-1.8-3.7-.5-2.1-.5-4.4 0-2.2.5-4.3.5-2.1 1.7-3.7 1.1-1.7 3-2.7 1.7-1 4.3-1 2.5 0 4.3.9 1.8 1 3 2.6t1.7 3.7q.6 2 .6 4.2zM1318.8 493.5q-1.4.8-3.7.8-2 0-3.2-1-1.1-1.2-1.1-3.7-2.1 2.5-5 3.6-2.7 1.1-6 1.1-2 0-4-.5-1.9-.4-3.3-1.5-1.4-1-2.2-2.6-.8-1.7-.8-4 0-2.7 1-4.4.8-1.7 2.3-2.7 1.5-1 3.3-1.6l4-1 4-.5 3.3-.6q1.4-.4 2.3-1.2.8-.7.8-2.2 0-1.7-.6-2.7-.6-1-1.7-1.6-1-.5-2.2-.7l-2.4-.2q-3.2 0-5.4 1.3-2.2 1.2-2.4 4.6h-5q0-2.9 1.1-4.8 1.1-2 3-3.2 1.7-1.3 4-1.8 2.4-.6 5-.6 2.1 0 4.2.3 2 .3 3.8 1.3 1.6.9 2.7 2.6 1 1.7 1 4.4v16q0 1.8.2 2.6.2.9 1.4.9.7 0 1.6-.3v4zm-8.3-16q-1 .8-2.6 1.2l-3.3.5-3.4.5q-1.7.2-3.1.8-1.4.6-2.3 1.8-.9 1-.9 3 0 1.3.5 2.2.6.8 1.3 1.3.9.6 2 .8 1 .3 2.3.3 2.5 0 4.3-.7 1.8-.7 3-1.7 1-1.1 1.6-2.3.6-1.3.6-2.4v-5.2zM1330.6 462.5v-9.3h-5v9.3h-5.4v4.5h5.3V487q0 2.1.4 3.4.5 1.4 1.3 2 .9.8 2.3 1.1 1.4.3 3.4.3h4V489h-4.4q-.7-.1-1.1-.4-.5-.3-.7-.9V467h6.1v-4.5h-6.2zM1349.7 462.5v-9.3h-5.1v9.3h-5.3v4.5h5.3V487q0 2.1.4 3.4.4 1.4 1.2 2 1 .8 2.3 1.1 1.5.3 3.5.3h3.9V489h-4.4q-.7-.1-1.1-.4-.4-.3-.6-.9l-.1-1.4V467h6.2v-4.5h-6.2zM1383.2 475.1h-17.9q.2-1.8.8-3.4.7-1.6 1.8-2.8 1.2-1.2 2.7-1.9 1.7-.7 3.7-.7 1.9 0 3.4.7 1.7.7 2.8 2 1.2 1 1.9 2.7.7 1.6.8 3.4zm5 8.7h-5.1q-.7 3-2.8 4.6-2 1.5-5.3 1.5-2.5 0-4.4-.9-1.8-.8-3-2.2-1.2-1.5-1.8-3.3-.5-1.8-.5-3.9h23.3q.2-2.8-.5-6-.6-3-2.3-5.7-1.6-2.7-4.4-4.3-2.7-1.8-6.8-1.8-3.2 0-6 1.2-2.6 1.2-4.6 3.4-1.9 2.2-3 5.1-1 3-1 6.5 0 3.6 1 6.6 1 3 2.8 5.1 1.8 2.2 4.6 3.4 2.7 1.2 6.5 1.2 5.3 0 8.7-2.6 3.5-2.7 4.6-8zM1393.8 462.5v31.2h5v-13.9q0-3 .7-5.3.6-2.3 2-4 1.2-1.6 3.4-2.4 2.2-.9 5.2-.9v-5.4q-4.1-.1-6.8 1.7t-4.6 5.6h-.1v-6.6h-4.8zM1415.2 462.5v31.2h5V476q0-2.1.6-3.9.6-1.8 1.8-3.1 1.1-1.3 2.8-2 1.7-.8 4-.8 3 0 4.7 1.7 1.7 1.7 1.7 4.6v21h5.1v-20.4q0-2.5-.5-4.6-.5-2-1.8-3.6-1.2-1.5-3.3-2.3-2-.9-5-.9-7 0-10.2 5.7h-.1v-5h-4.8zM617.4 526v42.9h5v-43h-5zM635.9 532.2v-6.3h-5.1v6.3h5zm-5.1 5.6v31h5v-31h-5zM644 526v42.9h5.2v-4.2q1 1.4 2.1 2.4 1.3.9 2.7 1.4 1.3.6 2.7.8l2.6.2q3.6 0 6.2-1.2 2.7-1.3 4.5-3.5 1.8-2.2 2.6-5.1 1-3 1-6.3t-1-6.2q-.9-3-2.7-5.2-1.7-2.3-4.4-3.6-2.7-1.4-6.3-1.4-3.2 0-6 1.2-2.7 1.2-4 3.8v-16H644zm24.1 27q0 2.3-.5 4.5t-1.5 3.9q-1.1 1.6-3 2.7-1.7 1-4.3 1-2.7 0-4.5-1-1.9-1-3.1-2.6-1.1-1.6-1.7-3.8-.5-2.1-.5-4.4 0-2.2.5-4.3.5-2 1.6-3.7 1.2-1.7 3-2.7 1.8-1 4.4-1 2.4 0 4.3 1 1.8.9 3 2.5t1.7 3.7q.6 2 .6 4.3zM679.3 537.8v31h5.1V555q0-3 .6-5.3t2-4q1.3-1.6 3.4-2.4 2.2-.8 5.3-.8V537q-4.2 0-6.9 1.7-2.7 1.8-4.6 5.6h-.1v-6.5h-4.8zM727.1 568.8q-1.3.7-3.6.7-2 0-3.2-1-1.2-1.2-1.2-3.7-2 2.5-4.9 3.7-2.8 1-6 1-2.1 0-4-.4-2-.5-3.3-1.5-1.4-1-2.2-2.7-.8-1.7-.8-4 0-2.7.9-4.4.9-1.6 2.3-2.7 1.5-1 3.4-1.6l4-.9 3.9-.6q2-.2 3.4-.6 1.4-.4 2.2-1.1.9-.8.9-2.3 0-1.7-.7-2.7-.6-1-1.6-1.5-1-.6-2.2-.8l-2.4-.1q-3.3 0-5.4 1.2-2.2 1.2-2.4 4.7h-5.1q.1-3 1.2-5 1-1.9 2.9-3.1 1.8-1.3 4-1.8 2.4-.6 5-.6 2.2 0 4.2.3 2.1.3 3.8 1.3 1.7 1 2.7 2.6 1 1.7 1 4.4v16q0 1.8.2 2.6.3.9 1.5.9.6 0 1.5-.3v4zm-8.3-16q-1 .7-2.5 1.1l-3.3.5-3.4.5q-1.8.3-3.2.9-1.4.6-2.3 1.7-.8 1-.8 3 0 1.3.5 2.2.5.8 1.3 1.4.8.5 2 .8 1 .2 2.2.2 2.5 0 4.4-.7 1.8-.7 2.9-1.7 1.1-1.1 1.7-2.3.5-1.3.5-2.4v-5.2zM731.7 537.8v31h5.1V555q0-3 .6-5.3t2-4q1.3-1.6 3.4-2.4 2.2-.8 5.3-.8V537q-4.2 0-6.9 1.7-2.7 1.8-4.6 5.6v-6.5h-4.9zM764.2 573q-.9 2.3-1.8 3.9-.8 1.6-2 2.5-1 1-2.3 1.5-1.2.4-3 .4h-1.7l-1.8-.5v-4.7l1.5.5 1.6.2q1.5 0 2.5-.8 1.1-.7 1.7-2l2-5.3-12.3-31h5.8l9.1 25.5h.1l8.7-25.4h5.5L764.2 573zM791.4 562.2v6.7h6.6v-6.7h-6.6zm-9.8-22.9h5q0-2 .5-3.9.5-1.8 1.6-3.1 1-1.3 2.6-2.1t3.7-.8q3.3 0 5.1 1.9 2 1.8 2.2 5.1.1 2.3-.5 3.8-.7 1.6-1.8 3l-2.4 2.4q-1.3 1.1-2.5 2.5t-2 3.2q-.8 1.8-.9 4.3v2.8h5.1v-2.3q0-1.6.4-2.8.5-1.3 1.2-2.3l1.7-2 2-1.8 1.8-2q1-1 1.7-2.3.7-1.2 1.1-2.6.5-1.5.5-3.4 0-2.9-1-5-.8-2.3-2.5-3.8-1.7-1.6-4-2.4-2.3-.8-5.2-.8-3.1 0-5.6 1-2.6 1.2-4.3 3.1-1.7 2-2.7 4.6-1 2.7-.8 5.7z"/></g><path d="M428.1 188.2h-40v600h40M388.1 488.2h-120" fill="none" stroke="currentColor" stroke-width="5"/><g fill="currentColor"><path d="M24.6 515.2q-7.2 0-12.7-2.9-5.5-2.8-8.5-8t-3-12v-3.6q0-.6.3-1 .5-.5 1.2-.5h14.3q.7 0 1 .5.5.4.5 1v2.8q0 3.8 2 6.2 2 2.4 5 2.4t5-2.3q2-2.2 2-5.8 0-3.8-2.5-6.4-2.5-2.8-9.7-8-6.3-4.5-10.1-8-4-3.5-6.7-8.6Q0 455.8 0 449q0-10.5 6.6-17 6.6-6.3 17.5-6.3 11 0 17.6 6.6 6.8 6.7 6.8 17.4v3q0 .6-.5 1.1-.4.4-1 .4H32.6q-.6 0-1.1-.4-.4-.5-.4-1v-3.5q0-3.8-2-6-1.9-2.5-5-2.5-3 0-4.9 2.3-1.8 2.1-1.8 6 0 3.7 2.3 6.6 2.4 2.9 9.4 8 7.8 5.8 11.6 9.4 4 3.5 6.2 7.9 2.2 4.2 2.2 10.2 0 11-6.7 17.5-6.8 6.5-17.8 6.5zM86.1 460.8q0 .7-.5 1.2-.4.3-1 .3h-7q-.6 0-.6.7v29.7q0 3.6 1.4 5 1.3 1.4 4 1.3h1q.6 0 1 .5.5.3.5 1v12.2q0 .6-.5 1.1-.4.4-1 .4h-5q-9.2 0-13.8-3-4.6-3.1-4.6-11.7V463q0-.7-.6-.7h-4.2q-.6 0-1.1-.3-.4-.5-.4-1.2v-9.3q0-.7.4-1 .5-.5 1.1-.5h4.2q.6 0 .6-.7v-13.8q0-.7.4-1 .5-.5 1-.5h14q.7 0 1 .5.6.3.6 1v13.8q0 .7.6.7h7q.6 0 1 .5.5.3.5 1v9.3zM116.7 449q10.6 0 17.3 5.7 6.6 5.8 6.6 15.1v43q0 .5-.5 1-.4.4-1 .4h-14.6q-.7 0-1.2-.4-.3-.5-.3-1V510q0-.4-.3-.5-.2-.2-.5.2-4.1 5.3-12.7 5.5-7.3 0-12.7-4-5.2-4-5.2-15.2 0-11.7 6.4-16 6.5-4.4 18.6-4.4h5.7q.7 0 .7-.6v-3.2q0-3.3-2-5.5-1.7-2.2-4.4-2.2-2.1 0-3.6 1.4-1.4 1.2-1.8 3.6-.1 1.5-1.6 1.5l-15-.1q-1.5 0-1.5-1.5.6-9.2 7.1-14.5 6.5-5.5 16.5-5.5zm-1.2 52.6q2.8 0 5-1.9 2.5-2 2.5-5.2v-6q0-.5-.7-.5h-5.1q-3.4 0-5.5 2-2 1.8-2 5.2 0 3.1 1.5 4.8 1.6 1.6 4.3 1.6zM172.1 515.2q-11 0-17.4-5.6-6.2-5.6-6.2-15.4V470q0-9.5 6.2-15.3 6.4-5.7 17.4-5.7 11 0 17.3 5.6 6.3 5.6 6.3 14.6v2.3q0 .6-.5 1-.3.5-1 .5l-14.6.6q-1.5 0-1.5-1.5v-1.5q0-2.8-1.7-4.6-1.7-2-4.3-2-2.7 0-4.4 2-1.6 2-1.6 5.3v21.5q0 3.3 1.6 5.3 1.7 2 4.4 2 2.6 0 4.3-1.9 1.7-2 1.7-4.6V492q0-.7.4-1 .5-.5 1.1-.5h14.6q.7 0 1 .6.5.4.5 1v2.9q0 9.2-6.3 14.7t-17.3 5.5zM205 514.2q-.6 0-1.1-.4-.4-.5-.4-1v-84.6q0-.6.4-1 .5-.5 1.1-.5h14.6q.7 0 1 .5.5.4.5 1v41.4q0 .5.3.6.2 0 .5-.4l10.8-18.8q.6-1 2-1h15q.8 0 1 .5.4.5 0 1.2l-13.6 21q-.2.5-.1.9l15.3 38.9v.6q0 1.1-1.3 1.1h-15.1q-1.3 0-1.7-1.2l-8-24.8q0-.4-.3-.4t-.4.3l-4.1 6.5-.3.7v17.4q0 .6-.5 1.1-.3.4-1 .4H205z"/></g><path d="M1628.1 268.2l80 240-80 200M1708.1 508.2h80" fill="none" stroke="currentColor" stroke-width="5"/><g fill="currentColor"><path d="M1845 549.5q-11.3 0-18.2-6.6-6.8-6.8-6.8-18v-40.5q0-11.1 6.8-17.8 6.9-6.6 18.1-6.6 11.4 0 18.1 6.6 7 6.6 7 17.8v1.4q0 .6-.6 1-.4.4-1 .4l-14.6.7q-1.5 0-1.5-1.4v-3.3q0-3.6-2-5.8-2-2.3-5.4-2.3-3.2 0-5.2 2.3-2 2.2-2 5.9v43q0 3.7 2 6 2 2 5.2 2 3.4 0 5.4-2 2-2.3 2-6V523q0-.6.4-1 .5-.5 1.1-.5l14.6.6q.6 0 1 .5.5.4.5 1v1.3q0 11.2-6.9 18-6.8 6.6-18 6.6zM1879.4 548.5q-.6 0-1.1-.4-.4-.5-.4-1.1v-84.5q0-.6.4-1 .5-.5 1.1-.5h14.6q.7 0 1 .5.5.4.5 1V547q0 .6-.5 1.1-.3.4-1 .4h-14.6zM1933.3 485.8q0-.7.4-1 .5-.5 1-.5h14.7q.6 0 1 .5.5.3.5 1V547q0 .6-.5 1.1-.4.4-1 .4h-14.6q-.6 0-1.1-.4-.4-.5-.4-1.1v-2.1q0-.4-.3-.5-.2-.1-.5.2-1.8 2.6-4.7 3.8-2.8 1-6.5 1-7.5 0-12.4-4.5-4.9-4.6-4.9-14.1v-45q0-.7.4-1 .5-.6 1.1-.6h14.7q.6 0 1 .6.5.3.5 1v41q0 3.7 1.3 5.7 1.5 1.9 4.3 1.9 2.7 0 4.4-2.1 1.6-2.2 1.6-5.8v-40.8zM1981.7 549.4q-10.6 0-17-5-6.3-5.2-6.3-13.7v-.8q0-.7.4-1 .5-.5 1.1-.5h13.8q.6 0 1 .5.5.3.5 1v.3q0 2.7 1.9 4.4 1.8 1.6 4.6 1.6 2.5 0 3.9-1.3 1.5-1.5 1.5-3.8 0-2.7-2.4-4.2-2.4-1.7-5.4-2.7l-4-1.5q-6.9-2.5-11.6-6.8-4.6-4.5-4.6-12.9 0-9.1 6-14.4 6-5.2 16-5.2 10.3 0 16.3 5.5 6.2 5.5 6.2 14.8 0 .7-.5 1.2-.4.3-1 .3h-13.4q-.6 0-1.1-.3-.4-.5-.4-1.2v-1q0-2.5-1.6-4-1.5-1.6-4-1.6-2.7 0-4.2 1.8-1.5 1.6-1.5 3.8 0 3 2.5 4.8 2.7 1.6 8 3.6t9 4.1q4 2 6.7 6 2.7 3.7 2.7 9.4 0 8.6-6.4 13.8-6.2 5-16.7 5zM2041 495.1q0 .6-.5 1.1-.4.4-1 .4h-7q-.7 0-.7.6V527q0 3.6 1.4 5t4.1 1.2h.9q.6 0 1 .5.5.4.5 1V547q0 .6-.5 1.1-.4.4-1 .4h-5q-9.1 0-13.8-3-4.6-3.1-4.6-11.8v-36.5q0-.6-.6-.6h-4.1q-.6 0-1.1-.4-.4-.5-.4-1v-9.5q0-.6.4-1 .5-.5 1-.5h4.2q.6 0 .6-.6v-13.9q0-.6.4-1 .5-.5 1.1-.5h14q.7 0 1 .5.5.4.5 1v14q0 .5.7.5h7q.6 0 1 .5.5.4.5 1v9.4zM2094.7 520.4q0 .6-.5 1.1-.4.4-1 .4h-27.5q-.6 0-.6.6v4.6q0 3.1 1.6 5.3 1.8 2 4.4 2 2.3 0 3.8-1.5 1.5-1.7 2-4 .4-1.3 1.7-1.3l14.3.8q.7 0 1 .5.5.3.4 1.1-.9 9.6-6.7 14.6-5.8 4.9-16.5 4.9-11.2 0-17.4-5.5-6.3-5.6-6.3-15.5v-24.3q0-9.5 6.3-15.2 6.4-5.8 17.4-5.8 11 0 17.2 5.8 6.4 5.7 6.4 15.2v16.2zm-23.6-22q-2.7 0-4.4 2-1.6 2-1.6 5.1v4.9q0 .6.6.6h10.8q.6 0 .6-.6v-4.9q0-3.1-1.8-5.1-1.6-2-4.2-2zM2131.5 483.5q3.4 0 5.3 1.3 1 .6.7 1.8l-2.4 14.7q0 1.3-1.7 1-1.4-.5-3.4-.5-1.9 0-3.2.5-3 .5-4.7 3.5-1.7 2.8-1.7 6.7v34.4q0 .6-.5 1.1-.4.4-1 .4h-14.6q-.7 0-1.2-.4-.3-.5-.3-1.1v-61.1q0-.7.3-1 .5-.6 1.2-.6h14.6q.6 0 1 .6.5.3.5 1v4.8l.1.6q.3 0 .5-.3 3.4-7.4 10.5-7.4z"/></g><path d="M988.1 788.2v120" fill="none" stroke="currentColor" stroke-width="5"/><g fill="currentColor"><path d="M960.1 984.4q0 11.6-7 17.8-7 6.3-18.1 6.3h-23.6q-.7 0-1.2-.4-.3-.5-.3-1.1v-84.5q0-.6.3-1 .5-.5 1.2-.5h20.8q12.5 0 19.5 6 7.2 6 7.2 17.9 0 12.3-8.5 18-.5.3-.2.7 10 7 10 20.8zm-32-48.3q-.6 0-.6.6v19.7q0 .6.6.6h4.5q4.3 0 6.6-2.6 2.4-2.8 2.4-7.7 0-5-2.4-7.8-2.2-2.8-6.6-2.8h-4.5zm5.5 57.1q4.1 0 6.5-3 2.4-3 2.4-8.5T940 973q-2.4-3.3-6.4-3.3h-5.6q-.6 0-.6.7v22.2q0 .6.6.6h5.5zM990.8 1009.5q-11 0-17.5-5.6-6.2-5.6-6.2-15.4v-24.3q0-9.5 6.4-15.2 6.3-5.8 17.3-5.8 11.2 0 17.5 5.8 6.4 5.8 6.4 15.3v24.2q0 9.8-6.4 15.4-6.2 5.6-17.5 5.6zm0-15.3q2.8 0 4.5-2 1.8-2 1.8-5v-21.7q0-3.1-1.8-5.1-1.7-2-4.5-2-2.7 0-4.5 2-1.6 2-1.6 5.1v21.6q0 3.1 1.6 5.1 1.8 2 4.5 2zM1019.2 1008.5q-.9 0-1.3-.4-.2-.5.2-1.4l14.2-30v-.7l-14.2-30q-.3-.5-.3-.8 0-1 1.4-1h16q1.2 0 1.7 1.2l6.2 14.1q.3.8.7 0l6.1-14.1q.5-1.1 1.8-1.1h15.9q.8 0 1 .5.5.3 0 1.2l-14.2 30q-.1.4 0 .8l14.3 30 .2.7q0 1-1.3 1h-16q-1.3 0-1.7-1.1l-6.1-14.6q-.4-1-.7 0l-6.2 14.6q-.3 1.1-1.7 1.1h-16z"/></g><path d="M612.1 350.2v-40h840v40M1068.1 308.2v-200" fill="none" stroke="currentColor" stroke-width="5"/><g fill="currentColor"><path d="M968.6 89.5q-11.2 0-18-6.6-6.8-6.8-6.8-18V24.4q0-11.1 6.7-17.8Q957.4 0 968.6 0q11.4 0 18.2 6.6 6.8 6.7 6.8 17.8v1.4q0 .6-.5 1-.3.4-1 .4l-14.6.7q-1.5 0-1.5-1.4v-3.3q0-3.6-2-5.8-2-2.3-5.4-2.3-3.2 0-5.2 2.3-2 2.2-2 5.9v43q0 3.7 2 6 2 2 5.2 2 3.4 0 5.4-2 2-2.3 2-6V63q0-.6.4-1 .5-.5 1.1-.5l14.6.6q.7 0 1 .5.5.4.5 1V65q0 11.2-6.8 18-7 6.6-18.2 6.6zM1047.8 60.4q0 .6-.5 1.1-.4.4-1 .4h-27.5q-.7 0-.7.6V67q0 3.1 1.7 5.3 1.7 2 4.3 2 2.4 0 4-1.5 1.4-1.7 2-4 .3-1.3 1.5-1.3l14.4.8q.6 0 1 .5.5.3.4 1-.9 9.7-6.8 14.7-5.7 4.9-16.5 4.9-11 0-17.3-5.5-6.3-5.6-6.3-15.5V44.2q0-9.5 6.3-15.2 6.3-5.8 17.3-5.8t17.3 5.8q6.4 5.7 6.4 15.2v16.2zm-23.7-22q-2.6 0-4.3 2-1.7 2-1.7 5.1v4.9q0 .6.7.6h10.7q.6 0 .6-.6v-4.9q0-3.1-1.7-5.1-1.6-2-4.3-2zM1085.7 23.3q8.5 0 12.8 5.6 4.2 5.6 4.2 15.7V87q0 .6-.5 1.1-.4.4-1 .4h-14.6q-.6 0-1.1-.4-.4-.5-.4-1.1V46q0-3.6-1.5-5.6-1.4-2-4.1-2-3 0-4.5 2.1-1.5 2-1.5 5.8V87q0 .6-.5 1.1-.4.4-1 .4h-14.7q-.6 0-1.1-.4-.4-.5-.4-1.1V25.7q0-.6.4-1 .5-.4 1.1-.4h14.7q.6 0 1 .4.5.4.5 1v2.4q0 .4.2.4.4 0 .9-.5 4-4.8 11.1-4.8zM1140.7 35.1q0 .6-.5 1.1-.3.4-1 .4h-7q-.6 0-.6.6V67q0 3.6 1.4 5t4.1 1.2h.9q.6 0 1 .5.5.4.5 1V87q0 .6-.5 1.1-.4.4-1 .4h-5q-9.1 0-13.8-3-4.6-3.1-4.6-11.8V37.2q0-.6-.6-.6h-4.1q-.7 0-1.2-.4-.3-.5-.3-1v-9.5q0-.6.3-1 .5-.5 1.2-.5h4q.7 0 .7-.6V9.7q0-.6.4-1 .5-.5 1.1-.5h14q.6 0 1 .5.5.4.5 1v14q0 .5.6.5h7q.7 0 1 .5.5.4.5 1v9.4zM1194.5 60.4q0 .6-.5 1.1-.4.4-1 .4h-27.5q-.6 0-.6.6V67q0 3.1 1.6 5.3 1.7 2 4.4 2 2.3 0 3.8-1.5 1.5-1.7 2-4 .4-1.3 1.7-1.3l14.3.8q.7 0 1 .5.5.3.4 1-.9 9.7-6.7 14.7-5.8 4.9-16.5 4.9-11.2 0-17.4-5.5-6.3-5.6-6.3-15.5V44.2q0-9.5 6.3-15.2 6.4-5.8 17.4-5.8 11 0 17.2 5.8 6.4 5.7 6.4 15.2v16.2zm-23.6-22q-2.7 0-4.4 2-1.6 2-1.6 5.1v4.9q0 .6.6.6h10.7q.7 0 .7-.6v-4.9q0-3.1-1.8-5.1-1.6-2-4.2-2zM1231.3 23.5q3.4 0 5.3 1.3 1 .6.7 1.8l-2.4 14.6q0 1.4-1.7 1-1.4-.5-3.4-.5-1.9 0-3.2.5-3 .5-4.7 3.5-1.7 3-1.7 6.8v34.4q0 .6-.5 1.1-.4.4-1 .4H1204q-.7 0-1.2-.4-.3-.5-.3-1.1V25.7q0-.6.3-1 .5-.4 1.2-.4h14.6q.6 0 1 .4.5.4.5 1v5l.1.6q.3 0 .5-.4 3.4-7.4 10.5-7.4z"/></g></svg>